<?xml version="1.0" encoding="UTF-8"?><svg xmlns="http://www.w3.org/2000/svg" height="389.02" viewBox="0 0 386 389.02" width="386"><defs><clipPath id="a" transform="translate(21.44 25.38)"><path d="M0 31.49H296.07V340.88H0z" fill="#ffcba2"/></clipPath></defs><g data-name="Layer 2"><g data-name="Layer 1"><g id="change1_1"><path d="M28.61 66.09H324.68V375.48H28.61z" fill="#f4b8b3" opacity=".63"/></g><g id="change2_1"><path d="M21.44 56.87H317.51V366.26H21.44z" fill="#ffcba2"/></g><g clip-path="url(#a)" fill="#fff" id="change3_1" stroke="#fff" stroke-miterlimit="10"><rect fill="inherit" width="384" x="2" y="83.95"/><rect fill="inherit" width="384" x="2" y="114.95"/><rect fill="inherit" width="384" x="2" y="142.95"/><rect fill="inherit" width="384" x="2" y="170.95"/><rect fill="inherit" width="384" y="201.95"/><rect fill="inherit" width="384" y="228.95"/><rect fill="inherit" width="384" y="257.95"/><rect fill="inherit" width="384" y="285.95"/><rect fill="inherit" width="384" y="312.95"/><rect fill="inherit" width="384" x="1" y="337.95"/><rect fill="inherit" transform="rotate(88.62 276.633 190.255)" width="384" x="86.91" y="166.58"/><rect fill="inherit" transform="rotate(88.62 245.641 191)" width="384" x="55.92" y="167.32"/><rect fill="inherit" transform="rotate(88.62 217.652 191.675)" width="384" x="27.93" y="168"/><rect fill="inherit" transform="rotate(88.62 189.658 192.345)" width="384" x="-.06" y="168.67"/><rect fill="inherit" transform="rotate(88.62 158.615 191.09)" width="384" x="-31.1" y="167.42"/><rect fill="inherit" transform="rotate(88.62 131.623 191.743)" width="384" x="-58.1" y="168.07"/><rect fill="inherit" transform="rotate(88.62 102.631 192.436)" width="384" x="-87.09" y="168.76"/><rect fill="inherit" transform="rotate(88.62 74.642 193.111)" width="384" x="-115.08" y="169.44"/><rect fill="inherit" transform="rotate(88.62 47.65 193.763)" width="384" x="-142.07" y="170.09"/><rect fill="inherit" transform="rotate(88.62 22.682 195.36)" width="384" x="-167.04" y="171.69"/></g><g id="change4_1"><path d="M188,14.64l-7.3,9A42.38,42.38,0,0,0,189,28.49a9.71,9.71,0,0,0-2.1,13.4L134,42c-6.25,0-13.26-.27-17.59-4.79-1.83-3.54,5.87-5.9,5.29-9.85-.47-3.23-6.1-3.9-6.08-7.16,0-1.46,3.86-13.92,4.74-15.45,4-6.91,11.66-4.54,18.49-3.59A198.27,198.27,0,0,1,188,14.64Z" fill="#ff968a" opacity=".58" transform="translate(21.44 25.38)"/></g></g></g></svg>