<?xml version="1.0" encoding="UTF-8"?><svg xmlns="http://www.w3.org/2000/svg" xmlns:xlink="http://www.w3.org/1999/xlink" data-name="Layer 1" height="492.0" preserveAspectRatio="xMidYMid meet" version="1.0" viewBox="9.2 3.9 186.5 492.0" width="186.5" zoomAndPan="magnify"><g id="change1_1"><path d="M142.42,240.76c-5,13.29-10.19,26.35-12.41,40.39a255.12,255.12,0,0,0-2.77,31.32c-.39,11.3-1.09,22.61-2,33.89-1,12.46-2.25,24.91-3.53,37.35a221.45,221.45,0,0,1-8.45,43.77c-1.37,4.36-3,8.63-4.78,12.86a269.85,269.85,0,0,0-9.69,28c0,.15.06.34.14.76a29.77,29.77,0,0,0,2.54-2.7c6.28-8.55,12.24-17.27,16.71-26.89,2.71-5.82,5.55-11.57,8.34-17.35.47-1,.81-2.4,2.23-2,1.66.49.95,1.95.67,3q-3.78,15-7.62,30a6.59,6.59,0,0,0,0,1,12.64,12.64,0,0,0,3-3.66c.55-.95,1-1.95,1.54-2.92.43-.81,1.17-1.44,2-.95a2.9,2.9,0,0,1,1.1,1.95,7.42,7.42,0,0,1-.42,2.41c-2.05,9.27-4.22,18.52-6.12,27.82-1,4.82-1.49,9.74-2.23,14.61-.12.84-.34,1.67-.51,2.51-1.9-.24-1.74-1.41-1.7-2.34.21-4.64.09-9.34.84-13.91,1.17-7.2,2.93-14.3,4.44-21.45.11-.53.17-1.06.33-2-1.9,1.27-2.86,2.9-4.16,4.2-.91.91-1.55,2.85-3.24,1.78-1.49-1-.44-2.55.11-3.73,3-6.47,4.06-13.46,6-20.2,0-.16,0-.35-.16-1.11-.65,1.21-1.12,2-1.51,2.83A145.56,145.56,0,0,1,105,466.69a22.51,22.51,0,0,1-3,3.29,25.13,25.13,0,0,0-6.27,8.33c-.69,1.4-1.43,2.78-2.19,4.14a2.79,2.79,0,0,1-2.85,1.76,5.58,5.58,0,0,1-.14-1.67,31.3,31.3,0,0,1,1.25-4.48,32,32,0,0,0,2-9.32c.7-8.46,1.52-16.91,2.29-25.36a1.89,1.89,0,0,0-.25-1.17l-.85,2.43a123.46,123.46,0,0,1-9.75,22.09c-.89,1.5-1.61,3.09-2.4,4.65-.38.76-.91,1.68-1.82,1.24-.53-.26-.67-1.32-.93-2a2.51,2.51,0,0,1,0-.81,47.67,47.67,0,0,0,.27-4.91,37.69,37.69,0,0,0-.8-6.22c-.22,2.82-.37,5.66-.67,8.47-.18,1.63-.69,3.22-.89,4.85a48.75,48.75,0,0,0-.37,5.66c0,1.34.27,2.68-.72,4.14a10,10,0,0,1-.82-1.4c-1.56-4.3-2.94-8.67-4.66-12.9-3.38-8.29-5.82-16.91-9.51-25.08a3.56,3.56,0,0,0-1.33-1.74,66.39,66.39,0,0,1,.93,6.69c.18,4.45.16,8.92.14,13.39a8.31,8.31,0,0,1-.92,2.29c-2.22-2.56-1.89-5.7-3.82-8.11.63,4.5,1.28,8.77,1.81,13.05a37,37,0,0,1,.23,5.46,2.25,2.25,0,0,1-1,1.68c-.88.41-1.33-.43-1.57-1.13-2.9-8.37-8-15.67-12-23.5-1.51-2.93-2.83-6-4.23-8.95a12.15,12.15,0,0,0-1.72-2.86c.16.82.28,1.64.48,2.45,2,8.07,3.95,16.15,6,24.2a52.94,52.94,0,0,0,9.41,19.14c1.3,1.71,3.28,2.94,5,4.36.65.55,1.38,1,2.15,1.58a1.79,1.79,0,0,1-2.56.33c-1.95-1.4-4.2-2.61-5.66-4.41a51.75,51.75,0,0,1-10-18.58c-2.2-7.82-4.21-15.71-6.1-23.61a267.61,267.61,0,0,0-8.5-28.35,14.37,14.37,0,0,1-.51-1.57c-.17-.81-.34-1.82.76-2,.48-.07,1.18.62,1.63,1.1a5,5,0,0,1,.71,1.48c3.58,8.33,7.26,16.62,10.69,25a132.18,132.18,0,0,0,8.36,17c1.86,3.16,3.66,6.35,5.74,10a9.15,9.15,0,0,0,0-4c-.74-4.59-1.55-9.17-2.3-13.77-.19-1.14-.24-2.3-.35-3.34,1.41-.75,1.78.11,2.1.84,1.18,2.69,2.31,5.39,3.47,8.08.23.55.52,1.08,1,2.08a32.87,32.87,0,0,0-.66-12.44c-2-8.34-4.34-16.61-6.56-24.91-.18-.7-.45-1.39-.68-2.08-.34-1-.18-1.89.91-2.25s1.67.54,2,1.4c.25.59.39,1.22.62,1.82q5,13.07,10.1,26.12a6.74,6.74,0,0,0,.65.83c0-1.31.07-2.24,0-3.15a213.55,213.55,0,0,1-.27-21.62c.18-7.29-.27-14.59-.37-21.89-.09-5.92-.1-11.85-.06-17.78A237.93,237.93,0,0,1,67,356.18c1.2-10.79,2.15-21.61,3-32.43.35-4.36.39-8.76.33-13.13q-.19-12.74-.67-25.46c-.38-9.48-1-19-1.37-28.44A100.77,100.77,0,0,1,69,237.87a41.48,41.48,0,0,0,.05-8.19c-.4-7.28-1.26-14.56-1.28-21.84,0-6.92.74-13.85,1.19-20.77.7-10.83,1.54-21.66,2.1-32.51.52-10.12,1-20.25,1-30.37.06-7.47-.52-14.94-.81-22.27-.42-.2-.59-.37-.74-.35-4.34.56-8.32-.61-12.3-2.14a14.16,14.16,0,0,0-8.27-.86,8.47,8.47,0,0,1-4.06-.63,21.18,21.18,0,0,1-3.79-1.8,9.59,9.59,0,0,0-5.94-1.29c-4.17.48-6.9-1.74-9.32-4.6-.81-1-1.61-1.94-2.56-3.07,1.19-.79,2.11-.41,3.09.47a46.16,46.16,0,0,0,3.81,3.18c2.1,1.54,4.59,1.46,7,1.33a2.79,2.79,0,0,0,1.35-.81c.85-.72,1.55-1.62,2.45-2.25,5.71-4,10.16-9.23,14.42-14.56,2.69-3.37,4.81-7.17,7.19-10.77a8.17,8.17,0,0,1,2.11-2.36C61,74.2,53.62,85.08,41.23,92.64a33.62,33.62,0,0,0,7.28,4,4.69,4.69,0,0,0,2.21.09,17.71,17.71,0,0,1,9.06,1.29,63.11,63.11,0,0,0,7.8,2.21,16.9,16.9,0,0,0,3.51,0c1.48-14.83,3.79-29.46.71-44.55-3.83,1.18-7.46,1.74-9.58,5.4-3.19,5.5-8,9.65-13,13.55a11.85,11.85,0,0,1-3.39,1.76c5-5.13,9.69-10.36,14.21-16-2-.49-2.75.66-3.48,1.67C53,67.12,47.72,70.17,42.35,73a18.93,18.93,0,0,1-4,1.34,1.28,1.28,0,0,1-1.1-.53,1.25,1.25,0,0,1,.34-1.16,10.17,10.17,0,0,1,2-1.06,63.05,63.05,0,0,0,14.16-9.84,10.59,10.59,0,0,0,.87-1.13c-3.44-.38-6.55-.87-9.69-1a9.74,9.74,0,0,0-6.77,2.24c-4.36,3.52-9.31,2.65-14.23,1.7-.54-.11-.94-.88-1.4-1.35l.24-.64c1,0,2,0,2.93,0,1.59.09,3.18.29,4.77.38A9.38,9.38,0,0,0,37,60.12c3.87-3,8.41-2.65,12.95-2.2a32.32,32.32,0,0,0,7.26.37A27.5,27.5,0,0,0,65,56c4.7-2.15,9.37-3,14.44-1.48a18,18,0,0,0,10.52.22A9.8,9.8,0,0,1,97.8,56a17.74,17.74,0,0,0,7.69,2.41,17.65,17.65,0,0,1,8,2.41,6.49,6.49,0,0,0,1.79.78A23.48,23.48,0,0,1,124.5,66a12.51,12.51,0,0,0,2.55,1.11,12.72,12.72,0,0,1,1.45,1,2.9,2.9,0,0,1-3.1.35A25.66,25.66,0,0,1,121,66.05a8.93,8.93,0,0,0-5-2,52.4,52.4,0,0,0,5.66,10.69c2.08,3.27,4.44,6.37,6.45,9.8a8.37,8.37,0,0,1-1.44-1c-5.39-5.78-10.26-11.88-12.83-19.43a2.8,2.8,0,0,0-1.09-1.45c-2-1.15-4-2.33-6.46-2.49a19.65,19.65,0,0,1-10.07-3.13,28.93,28.93,0,0,0,.71,16.78,70.55,70.55,0,0,0,8.19,17.66c1.48,2.21,3.34,4.16,5,6.22.39.48.8.93,1.25,1.45-1.21.68-1.77-.18-2.34-.63a37.32,37.32,0,0,1-7.76-9A66.26,66.26,0,0,1,95.2,76.66c-.18-.51-.4-1-.62-1.57-.84,2.47-.77,5.13.58,10.28.87,3.31,2,6.55,3.15,10.19C95.87,93,95.2,89.86,94,87l-.54.12c-.1,4.34-.25,8.69-.28,13,0,2.24,1.57,3.48,3.82,3a8.7,8.7,0,0,0,2.37-.84,10.25,10.25,0,0,1,8.71-.14,4.66,4.66,0,0,1,.5.25c3,1.7,5.84,2,8.92.06a7.41,7.41,0,0,1,5.73-.81c5.23,1.23,9.84,0,14.22-3.36-6.58-2.64-11.68-7.07-16-12.37-7.76-9.58-10.34-14.09-10.17-17.57a10.11,10.11,0,0,1,1.43,1.35c3,4.4,5.84,8.93,9,13.21a51.35,51.35,0,0,0,15.51,14.14,6.76,6.76,0,0,0,10-3.82,12.3,12.3,0,0,1,1.06-2.82c3.05-5.51,2.54-10.92-.65-16.13-2.15-3.52-4.61-6.86-6.92-10.29a3.69,3.69,0,0,1-.72-2.22,6.33,6.33,0,0,1,1.54.6A24.44,24.44,0,0,1,151,76.94c.38,1.6.76,3.21,1.26,4.77a11.38,11.38,0,0,1-1,8.76A58.38,58.38,0,0,1,148,96.15a5.82,5.82,0,0,1-5.3,3,10.5,10.5,0,0,0-6.49,2.21,14.51,14.51,0,0,1-9.2,2.87c-1.22-.08-2.45,0-3.66-.12a10.17,10.17,0,0,0-5.72,1.06,8.56,8.56,0,0,1-8.84,0,7.87,7.87,0,0,0-9.21.26c-2,1.37-4,1.19-6.51.13-.49,28.37-1,56.42-1.46,84.56,2.35.4,3.87-.79,5.51-1.53,6.39-2.86,12.66-6,19.17-8.56a98.37,98.37,0,0,1,30.66-6.57,19.25,19.25,0,0,1,15.57,6.09A84.23,84.23,0,0,1,178.4,202c1.67,3.37,3.82,6.52,5.38,9.93a39,39,0,0,1,3.38,18.4,6.35,6.35,0,0,1-3.12,5,14.16,14.16,0,0,1-9,2.39l-4.5-.28a12,12,0,0,0-8,2.11,6.47,6.47,0,0,1-7.09.71c-.51-.23-1.1-.31-1.58-.56a4.81,4.81,0,0,0-4.05-.12C147.43,240.29,145.13,241.52,142.42,240.76ZM98,456.89h.54c.24-.58.47-1.17.71-1.75,2.45-6,4.89-12.05,7.37-18.06,1.28-3.12,3-6.13,3.91-9.34a184.6,184.6,0,0,0,5.53-27.92c1.36-10.32,2.36-20.68,3.57-31,2.21-19,3.75-38,4.24-57.05a167.28,167.28,0,0,1,2.08-24,179.15,179.15,0,0,1,9.71-36.22,121.27,121.27,0,0,0,6.72-22.29,99.64,99.64,0,0,1,6-20.76,3.61,3.61,0,0,0,.1-.92,86.27,86.27,0,0,0-17.59-4.08c-.21,1.27-.47,2.41-.59,3.57a194.07,194.07,0,0,1-4.1,25.11c-1.2,5.06-1.52,10.29-3.4,15.22a54.58,54.58,0,0,0-2.18,6.78,180.36,180.36,0,0,0-5.11,38.75c-.09,6.84-.19,13.69-.43,20.53a238.75,238.75,0,0,1-5.81,45.84c-2.37,10.24-4.57,20.5-9,30.18a51.07,51.07,0,0,0-1.76,5.19c-2.07,6.34-4.19,12.67-6.16,19a74.65,74.65,0,0,0-1.68,7.43c-.32,1.59-.49,3.21-.75,4.81-.11.68,0,1.56-1.4,1.35a20,20,0,0,1-.27-2.08c-.31-10.22-.66-20.43-.89-30.65a371.3,371.3,0,0,1,2.49-48.64,125.26,125.26,0,0,0,.77-14.74c-.11-11.22-1.2-22.41-1.07-33.64.18-15.43,0-30.86,0-46.29,0-10,.61-19.92-.62-29.82a125.46,125.46,0,0,1-1-20.21c.09-2.19.31-4.38.36-6.57q.62-25.86,1.18-51.74c.17-7.94.14-15.89.38-23.83.39-12.77.9-25.54,1.44-38.3.18-4.38.57-8.74.94-13.11.32-3.71.74-7.41,1.15-11.51a22.05,22.05,0,0,0-3.93.29,17.24,17.24,0,0,1-7.79.27c-2.25-.44-4.54-.74-7.1-1.14A54,54,0,0,1,76,61.72a95.19,95.19,0,0,1-.39,24,115.77,115.77,0,0,0-1.18,25.9c.46,6.18.49,12.4.53,18.6,0,4-.36,8-.37,12.05-.06,16.91-1.65,33.72-3.33,50.53a174.54,174.54,0,0,0-.76,26c.33,6.84.25,13.69.31,20.54,0,2.45-.17,4.91-.07,7.36.2,5.11.59,10.21.8,15.31q.68,16.41,1.25,32.84c.14,3.73.09,7.48.29,11.22a233.76,233.76,0,0,1-1.78,40.72,364.82,364.82,0,0,0-2.9,41.76c0,4.37.19,8.75.33,13.12.16,5.29.44,10.58.5,15.88.1,9,0,18.06.08,27.09a59.22,59.22,0,0,0,3.79,21.46c.73,1.85,1.3,3.76,1.94,5.64A8.68,8.68,0,0,0,76.06,468c.13-6.3.17-12.59.25-18.88,0-1.55,0-3.11.14-4.64.12-1.09-.1-2.71,1.61-2.74,1.55,0,1.42,1.51,1.56,2.52.91,6.41,1.75,12.83,2.62,19.25.08.54.22,1.08.43,2,.56-.88.89-1.32,1.14-1.79,3.9-7.51,7.38-15.18,9.18-23.46.73-3.3,1.47-6.6,2.3-9.87a15.36,15.36,0,0,1,1.48-3.83,2.44,2.44,0,0,1,1.92-1.12c.59.11,1.23,1,1.44,1.72a7.73,7.73,0,0,1,.08,2.72q-1,11.73-1.95,23.47Zm-6.87-44.84.38.12c.87-2.95,1.9-5.87,2.6-8.86,1.73-7.48,3.71-14.88,7-21.92a22.18,22.18,0,0,0,1.47-4.41c1.75-7.56,3.67-15.1,5.07-22.72,3.37-18.37,4.57-36.93,4.63-55.58a132.67,132.67,0,0,1,.69-15.58c1.7-13.78,4.09-27.43,8.73-40.63A45.79,45.79,0,0,0,123,236.1a60,60,0,0,1-4.92-3.81,9.92,9.92,0,0,0-5.44-2.58,27.71,27.71,0,0,1-6.24-1.57c-3.66-1.54-6.5-4-7.26-8.07a5,5,0,0,0-2.5-3.74c-1.63-.94-3.33-1.79-5.24-2.8.11,1,.17,1.61.25,2.23a152.65,152.65,0,0,1,1.14,23.5c-.42,19.16-1.12,38.32-1.31,57.48-.09,9.47.69,18.95,1.09,28.43.17,4,.68,8,.53,12-.23,5.74-1,11.45-1.38,17.19-.59,9.37-1.37,18.75-1.45,28.14C90.16,392.36,90.8,402.21,91.12,412.05ZM161.4,209.91c.69,6.36,2.9,12,4.89,17.7a50.32,50.32,0,0,1-7.35-18.19l-6.38-1.13c.4,2.08.72,3.68,1,5.29s.66,3.22.9,4.84,1.25,3,.47,5.18c-3-4-3.42-8.4-4.74-12.83-4,9-5.32,18.25-7.12,27.86a25,25,0,0,0,3.36-.56c3.15-1,6.3-1.77,9.6-.61a3.42,3.42,0,0,0,1.37.24,4.89,4.89,0,0,0,2.36-.47c3.52-2.64,7.54-3,11.76-2.69,1.73.12,3.47,0,5.54,0a24.93,24.93,0,0,0-1.42-2.62,28,28,0,0,1-4.2-10.36c-.25-1.08-.72-2.26.33-3.63a6.6,6.6,0,0,1,1.25,1.47c.44,1.1.69,2.27,1.06,3.39,1.28,3.89,2.58,7.77,3.85,11.62,4.78-1.11,6.11-2.39,6.49-6.67s-.76-8-4.5-10.84a35.49,35.49,0,0,0-8.65-4.46A34.24,34.24,0,0,0,161.4,209.91Zm-40.76-8.48H109.7c-3.93,0-7.86.07-11.78-.13a54.76,54.76,0,0,1-6.73-1.17c0,2.36-.11,4.64,0,6.9a11.89,11.89,0,0,0,1,3.62c1.11,2.76,4.1,3.15,6.46,4.89,1.18-1.28,2.27-2.41,3.3-3.59s1.91-2.26,2.81-3.42,1.72-2.32,2.58-3.48l.64.34c-.68,2-1,4.1-2.11,5.82a71,71,0,0,1-5.44,6.84,9,9,0,0,0,2.5,5.81,10.24,10.24,0,0,0,5.69,3.24c1.57.26,3.09.73,4.66,1a10.28,10.28,0,0,1,5.92,2.86,41.13,41.13,0,0,0,3.79,3,13.12,13.12,0,0,0,.52-1.39c1.21-5.78,3.33-11.36,3.5-17.39.12-4,1-8,1.63-12.27l-5.72-1.17c-.87,1.86-1.71,3.48-2.4,5.17-1.56,3.85-4.33,6.79-7.44,9.47-.59.51-1.19,1.22-2.22.67C114.06,211.93,117.24,206.85,120.64,201.43Zm48.21-1.9a5.94,5.94,0,0,0,.07-1.4c-1.8-4.55-4-8.82-8-12a32.66,32.66,0,0,1-3.44-3.61c-.8-.89-1.49-1.89-2.33-2.74a5.71,5.71,0,0,0-5.35-1.73,26.14,26.14,0,0,1,4.19,3.1c2.54,2.81,4.88,5.78,7.21,8.76,2.09,2.68,4,5.47,6.09,8.2A15.17,15.17,0,0,0,168.85,199.53Zm4.38,7.2c.48-1.82-.72-2.95-1.37-4.22-.1-.19-.85-.2-1.22-.08a.93.93,0,0,0-.34.87C171,204.59,171.44,206.09,173.23,206.73Zm1.43,1.67c-.62,1.21-.39,1.75,1.09,1.6Z"/></g><g id="change1_2"><path d="M134.06,57a12.16,12.16,0,0,1-2-.71c-6.48-3.61-13.67-5.06-20.91-6.07-12.82-1.79-25.68-3.35-38.68-3-7.13.17-14.28.3-21.37.93a67.07,67.07,0,0,0-23.37,6.63c-3.27,1.58-6.66,2.89-9.59,5.1-2.76,2.08-4.89,4.46-5.8,7.82-.75,2.78.13,5.08,2.41,7,2.56,2.18,5.26,1.87,8.11,1a5.36,5.36,0,0,1,2.48-.44l-5.68,3.28c.19,1.42.37,2.8.63,4.73-.79-.52-1.23-.65-1.29-.88-.63-2.33-2.38-3.66-4.4-4.71a10.72,10.72,0,0,1-4.19-4.31,6.44,6.44,0,0,1-.84-5c.76-3.13,1.91-6.11,4.39-8.41,4.88-4.54,9.58-9.28,14.7-13.56A127.46,127.46,0,0,1,74.28,22.12a33.07,33.07,0,0,1,17.24-.31A83.59,83.59,0,0,1,102,24.9c3.3,1.23,5.83,3.6,8.12,6.2,3.48,3.95,6.87,8,10.52,11.77,4.23,4.38,8.71,8.54,13.07,12.81a10.27,10.27,0,0,1,.68.78ZM80.91,25.45a7.09,7.09,0,0,0,1.27.5,52.11,52.11,0,0,1,28.07,12.13,6,6,0,0,0,1.46.52,25,25,0,0,1-2.2-2.74A15.33,15.33,0,0,0,102,29.55C98.8,28.2,95.52,27.1,92.24,26A47.5,47.5,0,0,0,86,24.45C84.36,24.14,82.57,23.79,80.91,25.45ZM114.22,41l-.58.74a17.62,17.62,0,0,0,2,2.17c.28.25.94.08,1.43.1,0-.5.15-1.23-.12-1.44A20.35,20.35,0,0,0,114.22,41Z"/></g><g id="change1_3"><path d="M139.28,349.56c2.57-.92,4.78-1.52,6.81-2.49a9.86,9.86,0,0,0,4.54-4.72c1-2,1.75-4.14,2.79-6.67a6.48,6.48,0,0,1,.73,1.68c.14,1.72,0,3.48.28,5.17a22,22,0,0,0,1.52,5.22,8,8,0,0,0,6.79,4.93c-8,2.86-11.24,9.09-13.15,16.85-.37-.75-.77-1.18-.71-1.53,1.31-7.59-2.16-13-8.23-17.24C140.28,350.51,140,350.17,139.28,349.56Z"/></g><g id="change1_4"><path d="M28.19,128.83c1.22.71.78,1.72.94,2.55a47.52,47.52,0,0,0,1.51,7.47c1.16,3.22,3.29,5.74,7.24,6,.11,0,.2.24.43.54-7.76,3-10.51,9.47-12.12,17.36-.38-1-.74-1.44-.69-1.84.78-7.29-2.74-12.39-8.64-16.32-.58-.38-1.12-.81-2-1.43a67,67,0,0,0,6.63-2.79,10.39,10.39,0,0,0,4.43-5.18C26.8,133.13,27.43,131,28.19,128.83Z"/></g><g id="change1_5"><path d="M127.22,98.33c-8.16-1.66-23.3-24-24.43-35.61,1.63.55,1.87,2,2.35,3.2a90.05,90.05,0,0,0,11.69,21.14c2.65,3.49,6,6.53,9,9.77C126.18,97.26,126.59,97.68,127.22,98.33Z"/></g><g id="change1_6"><path d="M52,93.26c-.06-.36-.17-.6-.1-.69,6.56-8,11.32-17.1,16.38-26,.45-.77.58-2.31,2-1.76,1.21.47.32,1.64.12,2.41A20.71,20.71,0,0,1,69,70.78C65.42,78.36,60.29,85,54.83,91.33,54.11,92.18,53.39,93.17,52,93.26Z"/></g><g id="change1_7"><path d="M119,134a3.68,3.68,0,0,1,3.91,3.75,3.78,3.78,0,0,1-3.7,3.73A3.74,3.74,0,1,1,119,134Z"/></g><g id="change1_8"><path d="M126.41,75.2c3.41,2.52,6.77,5.1,10.24,7.53s7.54,3.74,12.26,4.68C141.76,89.85,129.45,81.64,126.41,75.2Z"/></g><g id="change1_9"><path d="M27.49,72.85A24.27,24.27,0,0,1,29.73,71c3-2,6.11-3.87,9.18-5.79a10.31,10.31,0,0,1,4.83-2C42.65,67.27,32.62,73.53,27.49,72.85Z"/></g><g id="change1_10"><path d="M193.9,58.23a3.22,3.22,0,0,1-3.22,3.37,3.6,3.6,0,0,1-3.88-3.71,3.38,3.38,0,0,1,3.32-3.29A3.89,3.89,0,0,1,193.9,58.23Z"/></g><g id="change1_11"><path d="M30.38,109.08a3.46,3.46,0,0,1-3.51,3.51,3.16,3.16,0,0,1-3.22-3.4,3.58,3.58,0,0,1,3.7-3.37A3.07,3.07,0,0,1,30.38,109.08Z"/></g><g id="change1_12"><path d="M99,63.83l8.4,19.56C103.22,80.44,97.71,67.93,99,63.83Z"/></g><g id="change1_13"><path d="M55.72,308a3.43,3.43,0,0,1,3.58,3.37,3.07,3.07,0,0,1-3.21,3,3.71,3.71,0,0,1-3.6-3.46A2.9,2.9,0,0,1,55.72,308Z"/></g><g id="change1_14"><path d="M21.22,290.09c-2,0-3.27-1.16-3.28-2.95a3.34,3.34,0,1,1,6.67-.3A3.28,3.28,0,0,1,21.22,290.09Z"/></g><g id="change1_15"><path d="M71.51,69.69a1.88,1.88,0,0,1,1,2.59C71.2,77,69.82,81.8,66.14,85.53,67.53,80.13,69,74.77,71.51,69.69Z"/></g><g id="change1_16"><path d="M160.92,393.39a3,3,0,0,1-2.86-3.12,3.3,3.3,0,0,1,3.16-2.9,2.81,2.81,0,0,1,2.69,2.94A3.23,3.23,0,0,1,160.92,393.39Z"/></g><g id="change1_17"><path d="M162.85,287.68a2.71,2.71,0,0,1,2.72-2.88,2.86,2.86,0,0,1,2.8,2.56c.06,1.36-1.36,2.58-3,2.62A2.2,2.2,0,0,1,162.85,287.68Z"/></g><g id="change1_18"><path d="M122,4a2.39,2.39,0,0,1,2.5,2.39A2.92,2.92,0,0,1,121.45,9,2.39,2.39,0,0,1,119,6.54,2.8,2.8,0,0,1,122,4Z"/></g><g id="change1_19"><path d="M33.94,77.44c-1.95,3.84-5,5.78-8.86,7.64C26.38,82.07,31.29,77.81,33.94,77.44Z"/></g><g id="change1_20"><path d="M191,319.85a2.36,2.36,0,0,1,2.4-2.41,2.24,2.24,0,0,1,2.27,2.24,2.59,2.59,0,0,1-2.62,2.58A2.16,2.16,0,0,1,191,319.85Z"/></g><g id="change1_21"><path d="M141.48,75c-2.09,1.55-4.14.55-6.07.08-1.4-.34-3.19-.44-3.57-2.41C133.39,72.47,139.63,74,141.48,75Z"/></g><g id="change1_22"><path d="M24.23,68.94c-2.38,1.27-4.85,2.29-7.73,1.9a1.59,1.59,0,0,1-1.16-.91,1.38,1.38,0,0,1,.82-1.12c2.62-.32,5.26-.51,7.89-.73Z"/></g><g id="change1_23"><path d="M145,27.18c1.16,2.1,1.26,8,0,10.36a4.84,4.84,0,0,1-.71-1.4C143.88,31.4,144.1,28.73,145,27.18Z"/></g><g id="change1_24"><path d="M145.07,10.09c1.06,3.24,1.15,8.69.19,10.71-.3-.21-.73-.36-.8-.61C144,18.44,144.34,11.73,145.07,10.09Z"/></g><g id="change1_25"><path d="M140.54,67.46c-1.8,1.81-5.43,2.23-7.07,1-.31-.23-.64-.92-.51-1.11a3.36,3.36,0,0,1,1.27-.82c.14-.07.37,0,.55,0Z"/></g><g id="change1_26"><path d="M160.37,341.83c1.8-2.28,7.79-5,10.73-4.86A38,38,0,0,1,160.37,341.83Z"/></g><g id="change1_27"><path d="M39.45,317a4.93,4.93,0,0,1-1.44.68c-3.73.3-6.86,0-8-.58C31.82,316.28,37.55,316.15,39.45,317Z"/></g><g id="change1_28"><path d="M35.54,134.18c1-1.8,7.07-5.09,9.63-5.25C44,130.69,37.73,134.13,35.54,134.18Z"/></g><g id="change1_29"><path d="M158.44,361.68l6.6,7.88-.25.37c-.39-.09-.9-.07-1.14-.3-4.27-4.18-5.65-6-5.76-7.62Z"/></g><g id="change1_30"><path d="M34,154.66c.4,0,.88-.08,1,.1,2.25,2.31,4.44,4.67,7.06,7.45C39.66,161.64,34.72,156.79,34,154.66Z"/></g><g id="change1_31"><path d="M138.48,331.91c1.79.88,5.06,5.21,6.25,8.11-1.07-.19-1.13-.14-3.58-3.49C140.14,335.14,138.49,334,138.48,331.91Z"/></g><g id="change1_32"><path d="M13.14,125.63c.42.06.82,0,1,.18a38.41,38.41,0,0,1,5.48,7.58C18,132.83,13.91,128,13.14,125.63Z"/></g><g id="change1_33"><path d="M27.15,331.38c-1.28-2.48-1.28-8.38-.18-10.17C27.93,323,28.09,328.25,27.15,331.38Z"/></g><g id="change1_34"><path d="M27.11,304.41a36.79,36.79,0,0,1,.66,9.59c0,.22-.45.43-.74.68C26.08,312.71,26,307,27.11,304.41Z"/></g><g id="change1_35"><path d="M134.08,88.25c3.15.75,5.21,2.78,8.47,3.53A7.7,7.7,0,0,1,134.08,88.25Z"/></g><g id="change1_36"><path d="M24.27,317a15.93,15.93,0,0,1-8,.37C18,316.32,21.37,316.12,24.27,317Z"/></g><g id="change1_37"><path d="M157.15,23.34a53.84,53.84,0,0,1-9.59.38C149.41,22.46,155.1,22.24,157.15,23.34Z"/></g><g id="change1_38"><path d="M16.92,153.33a3.19,3.19,0,0,1-.51.84c-2.2,1.79-4.43,3.54-6.84,5.47C10.09,157.94,13.91,154.49,16.92,153.33Z"/></g><g id="change1_39"><path d="M61.83,92c.6-1.32,1.11-2.68,1.83-3.92.23-.39,1-.46,1.58-.67.07.5.35,1.09.17,1.48a6.89,6.89,0,0,1-3,3.59Z"/></g><g id="change1_40"><path d="M138.27,61.77c-1.45-.08-2.77-1.34-2.53-2.22A1.9,1.9,0,0,1,137,58.42c1-.18,2.36,1.08,2.19,2C139.09,61,138.5,61.45,138.27,61.77Z"/></g><g id="change1_41"><path d="M132.92,365.36a24.57,24.57,0,0,1,7.63-5.76C139.8,361.25,135.72,364.33,132.92,365.36Z"/></g><g id="change1_42"><path d="M108.32,86.21c1.89.56,2.86,1.65,4.23,4.6C109.94,90.18,109,88.45,108.32,86.21Z"/></g><g id="change1_43"><path d="M134.32,23.75c1.74-1.23,3.62-1.35,7.64-.92-1,1.5-2.47.77-3.66.89A37.7,37.7,0,0,1,134.32,23.75Z"/></g><g id="change1_44"><path d="M20.82,84.47c1.32-.09,2.29,0,2.33,1.35a1.19,1.19,0,0,1-.82.85C21.05,86.67,20.65,85.88,20.82,84.47Z"/></g><g id="change1_45"><path d="M21.59,311.76l2.64,1.85C22.28,314.08,22.15,312.68,21.59,311.76Z"/></g><g id="change1_46"><path d="M26.91,316.36c.33.55.73.93.67,1.22s-.56.53-.86.79c-.26-.31-.71-.62-.72-.94S26.47,316.85,26.91,316.36Z"/></g><g id="change1_47"><path d="M148.18,25.91l1.7,2.05C148.3,27.9,148.3,27.9,148.18,25.91Z"/></g><g id="change1_48"><path d="M30.14,319.89c.53.65,1.05,1.31,1.57,2l-.59.5-1.72-1.86Z"/></g><g id="change1_49"><path d="M139.35,27.36,142,25C141.27,26.89,141.27,26.89,139.35,27.36Z"/></g><g id="change1_50"><path d="M141.73,20.78l-2.19-2.59C141.6,18.94,141.6,18.94,141.73,20.78Z"/></g><g id="change1_51"><path d="M30,313.29l1.77-1.53a1.82,1.82,0,0,1-1.34,2Z"/></g><g id="change1_52"><path d="M144.92,22.4c.38.55.83.91.79,1.2a1.17,1.17,0,0,1-.87.74,1.13,1.13,0,0,1-.8-.82C144,23.23,144.5,22.9,144.92,22.4Z"/></g><g id="change1_53"><path d="M148.08,19.39l2.1-1.87C149.78,18.94,149.78,18.94,148.08,19.39Z"/></g><g id="change1_54"><path d="M24,319.93l-2.11,1.76a2.18,2.18,0,0,1,1.6-2.22Z"/></g><g id="change1_55"><path d="M87.11,105.21a12.83,12.83,0,0,1,.71,3c0,3.82-.13,7.64-.26,11.46q-.25,8.07-.58,16.13-.37,8.86-.84,17.74c-.37,7.1-.86,14.19-1.13,21.29-.17,4.28,0,8.56,0,12.84,0,.85,0,1.7,0,2.8a2,2,0,0,1-1.51-2.13c-.24-2.45-.54-4.9-.6-7.36q-.3-14.22.79-28.41c.54-7.27.57-14.57.87-21.85q.48-11.47,1-22.94a16.92,16.92,0,0,1,.47-2.52Z"/></g><g id="change1_56"><path d="M71.4,423.61c-.3-2.3-.77-4.58-.89-6.89a246.81,246.81,0,0,1,.81-37.67c.49-4.7.34-9.47.51-14.2,0-1.12-.16-2.37,1-3.22,1.5.88,1.35,2.3,1.4,3.47.15,4.09.35,8.2.13,12.29-.32,5.82-1.26,11.61-1.46,17.42-.31,8.56-.2,17.13-.29,25.7,0,1-.14,2.06-.22,3.09Z"/></g><g id="change1_57"><path d="M141.93,219.27c.57,2,0,3.91-.16,5.86-.7,6.87-3.09,13.3-5.54,19.7-2.78,7.26-5.51,14.52-8.28,21.78-.47,1.22-1,2.41-1.6,3.65-1.47-.76-.84-1.63-.64-2.33.71-2.45,1.68-4.84,2.26-7.31a185.84,185.84,0,0,1,9.47-28.27c1.34-3.27,2-6.81,2.94-10.24.27-1,.49-2,.73-3Z"/></g><g id="change1_58"><path d="M74.1,427.74c-.6.51-1,1.07-1.33,1.06a1.35,1.35,0,0,1-1-.9c0-.32.53-.93.9-1S73.44,427.34,74.1,427.74Z"/></g><g id="change1_59"><path d="M157.35,230.57c-2-.69-3.13-2.15-2.71-3.23a1.7,1.7,0,0,1,1.16-.92,1.53,1.53,0,0,1,1.26.71A23.06,23.06,0,0,1,157.35,230.57Z"/></g><g id="change1_60"><path d="M123.72,207.71c.81,3.15-3,10.23-7,13A48.65,48.65,0,0,1,123.72,207.71Z"/></g><g id="change1_61"><path d="M114.69,223.11l1.26-.94c.23.32.71.81.62.94a3,3,0,0,1-1.14.86C115.37,224,115,223.52,114.69,223.11Z"/></g></svg>