<?xml version="1.0" encoding="UTF-8"?><svg xmlns="http://www.w3.org/2000/svg" xmlns:xlink="http://www.w3.org/1999/xlink" height="394.0" preserveAspectRatio="xMidYMid meet" version="1.0" viewBox="-17.6 -3.4 214.1 394.0" width="214.1" zoomAndPan="magnify"><g id="change1_1"><path d="M163.984,291.27c-1.667-8.419-9.434-14.91-14.797-3.46c-1.607,3.431-2.033,7.243-2.782,10.936 c-5.895,29.073-40.576,44.797-41.702,75.039c-0.287,7.721,1.378,10.809,9.065,11.704c6.908,0.805,15.417-0.039,19.466-6.15 c3.724-5.62,2.511-12.879,1.66-19.492c-2.262-17.594,13.402-29.324,22.284-42.712c4.895-7.379,7.876-15.257,7.058-24.118 C164.183,292.429,164.098,291.845,163.984,291.27z" fill="#D7AC94"/></g><g fill="#BD744D" id="change2_1"><path d="M95.113,0.451C77.961-3.423,62.78,18.683,52.992,28.328c-22.595,22.264-70.547,54.688-46.337,89.7 c6.014,8.697,15.614,14.924,25.969,18.857c18.616,7.07,45.613,9.876,62.984-1.892c12.996-8.805,17.178-24.811,18.982-39.569 C117.023,75.519,124.779,7.151,95.113,0.451z" fill="inherit"/><path d="M175.651,223.463c-4.494-1.122-9.534-0.224-12.299,3.381c-2.571,3.353-2.532,7.932-3.106,12.118 c-2.163,15.768-12.908,22.833-25.236,30.841c-8.705,5.655-15.809,16.249-10.831,26.935c3.045,6.535,10.415,10.777,17.595,10.126 c6.067-0.55,11.899-4.215,17.872-3.017c4.596,0.922,8.369,4.619,13.035,5.074c7.992,0.779,12.682-8.697,15.738-14.767 c3.686-7.321,5.864-15.378,6.633-23.528c1.511-16.017-0.026-37.235-15.95-45.835C178.028,224.212,176.859,223.764,175.651,223.463z" fill="inherit"/></g><g id="change3_1"><path d="M50.353,83.503c-7.419-2.687-15.259-4.972-23.152-4.257c-7.893,0.715-15.88,5.058-18.634,12.202 c-3.516,9.12,2.381,19.184,9.713,25.889c16.744,15.311,42.444,20.895,64.414,13.994c4.999-1.57,9.952-3.842,13.371-7.683 C112.842,104.799,63.337,88.205,50.353,83.503z" fill="#724E39"/></g><g id="change1_2"><path d="M45.284,203.205c0.96,3.511,1.951,6.958,2.943,10.323c13.476,45.719,13.59,87.109-2.198,131.883 c-3.099,8.789-13.224,25.633-6.372,34.42c8.363,10.725,33.198,9.716,44.655,6.337c3.649-1.076,7.385-2.683,9.503-5.733 c3.322-4.785-2.125-13.85-2.336-18.996c-0.438-10.669,2.22-22.023,2.61-32.767c0.794-21.864-0.509-43.902-5.605-65.273 c-4.048-16.973-10.353-33.295-16.231-49.732c-5.544-15.503-11.284-31.43-14.319-47.605c-0.537-20.056,1.457-40.252,4.738-59.979 c1.255-7.544-8.475-10.099-12.548-4.201C29.835,131.26,36.224,170.08,45.284,203.205z" fill="#D7AC94"/></g><g fill="#724E39" id="change3_2"><path d="M137.217,286.368c-0.749-0.632-1.836-0.87-2.799-0.652c-0.668-0.079-1.304-0.001-1.912,0.276 c-0.934,0.425-1.637,1.147-1.979,2.085c-0.671,1.841,0.246,3.821,2.052,4.701c1.708,0.833,3.717,0.341,4.997-0.954 c0.549-0.556,0.969-1.408,1.105-2.157c0.139-0.767,0.04-1.595-0.406-2.261C138.001,286.999,137.592,286.685,137.217,286.368z" fill="inherit"/><path d="M177.993,246c-0.24-0.65-0.726-1.224-1.372-1.539c-0.328-0.16-0.731-0.253-1.134-0.274 c-0.202-0.102-0.417-0.189-0.655-0.251c-0.787-0.204-1.807-0.02-2.465,0.41c-0.776,0.506-1.216,1.28-1.476,2.121 c-0.468,1.515,0.402,3.116,1.789,3.851c1.174,0.622,2.781,0.441,3.845-0.308C177.821,249.098,178.553,247.519,177.993,246z" fill="inherit"/><path d="M184.051,279.281c-0.625-0.452-1.279-0.754-2.085-0.708c-0.04,0.002-0.082,0.015-0.123,0.019 c-0.557-0.309-1.32-0.328-1.917-0.219c-0.714,0.131-1.178,0.437-1.727,0.9c-1.275,1.075-1.733,3.135-1.105,4.634 c0.715,1.708,2.489,2.84,4.422,2.748c1.923-0.091,3.44-1.374,3.936-3.128C185.865,282.074,185.33,280.207,184.051,279.281z" fill="inherit"/><path d="M161.985,269.899c-0.052-0.046-0.109-0.088-0.164-0.132c-0.663-1.023-1.869-1.669-3.154-1.6 c-2.53,0.137-4.442,2.512-4.281,4.885c0.152,2.244,2.087,3.966,4.37,4.12c1.3,0.088,2.592-0.36,3.492-1.29 c0.811-0.838,1.171-1.948,1.135-3.077C163.35,271.738,162.798,270.619,161.985,269.899z" fill="inherit"/><path d="M44.278,54.19c-0.404-0.339-0.924-0.661-1.42-0.883c-1.014-0.453-1.696-0.494-2.809-0.53 c-1.006-0.032-2.212,0.545-2.971,1.194c-0.023,0.016-0.052,0.024-0.074,0.04c-0.416,0.311-0.875,0.607-1.21,0.996 c-0.639,0.743-1.07,1.387-1.269,2.333c-0.281,1.335,0.037,2.782,0.851,3.915c1.481,2.06,4.416,2.894,6.933,2.117 c2.991-0.923,4.564-3.889,3.701-6.639C45.713,55.783,45.073,54.857,44.278,54.19z" fill="inherit"/><path d="M79.919,19.678c-0.533-0.404-1.167-0.698-1.846-0.84c-2.274-0.477-4.434,0.743-5.543,2.514 c-0.705,1.126-0.909,2.501-0.648,3.76c0.555,2.683,3.212,4.724,6.234,4.586c1.475-0.068,2.978-0.703,3.947-1.735 c1.301-1.385,1.575-3.11,1.128-4.836C82.788,21.575,81.494,20.304,79.919,19.678z" fill="inherit"/><path d="M103.732,61.354c-0.832-0.677-1.929-1.058-3.038-1.113c-0.273-0.106-0.555-0.195-0.853-0.244 c-4.214-0.697-7.707,2.578-7.778,6.339c-0.056,2.948,2.451,5.529,5.512,6.167c3.124,0.651,6.26-0.688,7.742-3.301 C106.768,66.642,106.07,63.255,103.732,61.354z" fill="inherit"/><path d="M77.935,71.091c-0.806-0.83-2.159-1.039-3.304-0.706c-2.073,0.604-3.227,2.916-2.464,4.784 c0.779,1.907,2.976,2.781,5.057,2.241c1.845-0.479,3.117-2.075,3.04-3.834C80.212,72.402,79.175,71.339,77.935,71.091z" fill="inherit"/></g></svg>