<?xml version="1.0" encoding="UTF-8"?><svg xmlns="http://www.w3.org/2000/svg" xmlns:xlink="http://www.w3.org/1999/xlink" height="309.9" preserveAspectRatio="xMidYMid meet" version="1.0" viewBox="-0.8 0.0 436.1 309.9" width="436.1" zoomAndPan="magnify"><g id="change1_1"><path d="M2.03,43.9l0.45,0.93C2.28,45.85,2.08,46.36,2.03,43.9z M99.35,1.98l-2.3,0.34 c0.51,0.02,1.05,0.05,1.58,0.08C99.2,2.3,99.48,2.16,99.35,1.98z M0.44,78.22c0.42-1.14,0.73-2.45,0.98-3.8 C1.08,73.9,0.65,75.28,0.44,78.22z M136.41,2.16c2.49,0.06,4.67,0.11,6.99,0.16C141.85,2.18,139.37,2.08,136.41,2.16z M49.51,309.8 c0.45,0.03,1.01,0.07,1.74,0.11L49.51,309.8z M432.08,265.09l0.45,0.93C432.48,263.57,432.28,264.07,432.08,265.09z M335.21,307.95 l2.3-0.34c-0.51-0.02-1.05-0.05-1.58-0.08C335.37,307.63,335.08,307.77,335.21,307.95z M434.12,231.71 c-0.42,1.14-0.73,2.45-0.98,3.8C433.48,236.02,433.91,234.65,434.12,231.71z M298.15,307.77c-2.49-0.06-4.67-0.11-6.99-0.16 C292.71,307.75,295.19,307.84,298.15,307.77z M385.05,0.13c-0.45-0.03-1.01-0.07-1.74-0.11L385.05,0.13z M432.32,138.37 c-0.68,15.45,0.52,18.08,0.16,34.64l0.54-7.75c1.76,8.59-0.98,25.4,1.01,27.95c-0.29,9.92-2.26,18.41-1.91,30.49l1.73-5.15l0.03,11 l-1.19,0.15c-0.07,3.56,0.16,5.37,0.46,5.81c-1.35,7.53-0.6,18.05-1.65,28.4l0.59,1.18c-0.16,0.79-0.32,1.88-0.43,2.15 c1.04,2.06,0.66,10.33,1.61,10.77c0.23-3.33,0.77-11.04,0.13-10.43c1.17-8.41,0.66,10.33,0.67,15.84c-0.28-2.99-0.46-2.55-0.6-0.95 c-0.03,0.4-0.06,0.87-0.09,1.38c-0.03,0.51-0.04,1.01-0.13,1.76c-0.09,0.69-0.12,1.38-0.27,2.02c-0.17,0.64-0.33,1.24-0.46,1.76 c0.01,0.68,0.4-0.68,0.77-1.35c-0.46,3.27-1.86,5.94-3.59,8.02c-1.75,2.07-3.63,3.67-5.63,4.95c-3.99,2.59-7.74,4.33-13.1,6.54 c-0.56,0-1.12,0.01-1.67,0l-1.66-0.1c-0.56,0.12-1.11,0.26-1.68,0.37l-1.72,0.26c-1.15,0.2-2.31,0.29-3.49,0.37 c-1.27,0.1-2.14,0.13-3.1,0.18l-2.87,0.14c-1.03-1.58-16.19-0.15-18.05-1.62c-13.12-0.04,1.75,0.9-2.92,0.74 c-12.22,0.31-33.72-1.12-37.87-0.38c-4.48-0.23-9.12-0.3-13.67-0.33c-2.08,0.14-4.08,0.24-6.03,0.25c-7.15-0.05-8.22-0.18-7.21-0.33 c-1.41-0.02-2.78-0.05-4.09-0.1l-0.63,0.68c-4.33-0.15-9.34-0.44-13.69-0.39c0.72,0.08,1.32,0.17,1.69,0.29 c-0.48-0.05-1.31-0.1-2.36-0.15c0.27,0.05,0.68,0.11,1.21,0.15c-5.5-0.13-10.66-0.22-15.63-0.28c-0.37,0.02-0.71,0.04-1.02,0.07 c0.13,0.28,13.25,0.33,4.81,0.45c-13.56-0.23-22.64-0.15-30.89,0.02c1.29,0.07,3.11,0.14,5.75,0.19c-4.71,0.22-10.5,0.18-16.88,0.06 c-6.83,0.15-14.23,0.26-24.28,0.21l2.42,0.5c-3.14-0.11-5.52-0.33-8.53-0.16l1.66,0.34c-3.93,0.01-31.9-0.7-50.31-0.51l9.39,0.61 l-16.39-0.72l1.81,0.9c-5.66-0.9-24.84-0.31-40.29-0.58l0.11,0.57l-9.34-0.33l3.16,0.39c-9.27-0.05-20.28-1-30.92-0.53 c6.88-0.18,8.53,0.73,7.9,1.12l-28.02-0.99c-0.62,0.36-10.96,0.5-6.13,0.86l-9.21-0.56l0.85,0.45c-1.37,0.02-2.73,0.04-4.08,0.07 l-2.04,0.02l-2.62-0.07c-3.48-0.2-6.95-0.68-10.16-1.63c-6.46-1.81-11.94-5.04-15.7-9.01c-3.76-3.98-5.79-8.72-5.8-13.38l-0.02-0.86 l0.03-0.68l0.06-1.37l0.13-2.73l0.25-5.45c0.66-14.52,1.13-29.02-0.26-44.56L0.7,230.6l1.47-18.28c-0.16-3.33-1.28-4.28-1.69-9.73 c1.2,2.6,0.14-10.51,1.16-13.93c-0.49-4.29-0.79,0.11-1.27,1.28c-1.15-17.54,0.8-31.49-0.03-50.65c1.63,19.08,1.23,19.16,1.89,32.26 c0.68-15.45-0.52-18.08-0.16-34.64l-0.54,7.75c-1.76-8.59,0.98-25.4-1.01-27.95c0.29-9.92,2.26-18.41,1.91-30.49l-1.73,5.15 l-0.03-11l1.19-0.15c0.07-3.56-0.16-5.37-0.46-5.81c1.35-7.53,0.6-18.05,1.65-28.4l-0.59-1.18c0.16-0.79,0.32-1.88,0.43-2.15 c-1.04-2.06-0.66-10.33-1.61-10.77c-0.23,3.33-0.77,11.04-0.13,10.43C-0.01,50.76,0.5,32.01,0.49,26.5c0.28,2.99,0.46,2.55,0.6,0.95 c0.03-0.4,0.06-0.87,0.09-1.38c0.03-0.51,0.04-1.01,0.13-1.76c0.09-0.69,0.12-1.38,0.27-2.02c0.17-0.64,0.33-1.24,0.46-1.76 c-0.01-0.68-0.4,0.68-0.77,1.35c0.46-3.27,1.86-5.94,3.59-8.02c1.75-2.07,3.63-3.67,5.63-4.95c3.99-2.59,7.74-4.33,13.1-6.54 c0.56,0,1.12-0.01,1.67,0l1.66,0.1c0.56-0.12,1.11-0.26,1.68-0.37l1.72-0.26c1.15-0.2,2.31-0.29,3.49-0.37 c1.27-0.1,2.14-0.13,3.1-0.18l2.87-0.14c1.03,1.58,16.19,0.15,18.05,1.62c13.12,0.04-1.75-0.9,2.92-0.74 C72.98,1.7,94.48,3.14,98.63,2.4c4.48,0.23,9.12,0.3,13.67,0.33c2.08-0.14,4.08-0.24,6.03-0.25c7.15,0.05,8.22,0.18,7.21,0.33 c1.41,0.02,2.78,0.05,4.09,0.1l0.63-0.68c4.33,0.15,9.34,0.44,13.69,0.39c-0.72-0.08-1.33-0.17-1.69-0.29 c0.48,0.05,1.31,0.1,2.36,0.15c-0.27-0.05-0.68-0.11-1.21-0.15c5.5,0.13,10.66,0.22,15.63,0.28c0.37-0.02,0.71-0.04,1.02-0.07 c-0.13-0.28-13.25-0.33-4.81-0.45c13.56,0.23,22.64,0.15,30.89-0.02c-1.29-0.07-3.11-0.14-5.75-0.19c4.71-0.22,10.5-0.18,16.88-0.06 c6.83-0.15,14.23-0.26,24.28-0.21l-2.42-0.5c3.14,0.11,5.52,0.33,8.53,0.16l-1.66-0.34c3.93-0.01,31.9,0.7,50.31,0.51l-9.39-0.61 l16.39,0.72l-1.81-0.9c5.66,0.9,24.84,0.31,40.29,0.58l-0.11-0.57l9.34,0.33l-3.16-0.39c9.27,0.05,20.28,1,30.92,0.53 c-6.88,0.18-8.53-0.73-7.9-1.12l28.02,0.99c0.62-0.36,10.96-0.5,6.13-0.86l9.21,0.56l-0.85-0.45c1.37-0.02,2.73-0.04,4.08-0.07 l2.04-0.02l2.62,0.07c3.48,0.2,6.95,0.68,10.16,1.63c6.46,1.81,11.94,5.04,15.7,9.01c3.76,3.98,5.79,8.72,5.8,13.38l0.02,0.86 l-0.03,0.68l-0.06,1.37l-0.13,2.73l-0.25,5.45c-0.66,14.52-1.13,29.02,0.26,44.56l0.24-0.56l-1.47,18.28 c0.16,3.33,1.28,4.28,1.69,9.73c-1.2-2.6-0.14,10.51-1.16,13.93c0.49,4.29,0.79-0.11,1.27-1.28c1.15,17.54-0.8,31.49,0.03,50.65 C432.59,151.55,432.99,151.47,432.32,138.37z M2.12,76.08l0.05-3C2.05,74.16,2.06,75.13,2.12,76.08l-0.09,4.73 C2.78,80.3,2.28,78.52,2.12,76.08z M3.51,99.34c0.08,1.63,0.01,2.73-0.15,4.98c1.66-1.29-0.57-6.01,0.29-12.69 c-0.79,0.11-0.93,7.78-1.48,10.07C2.33,104.99,3.03,100.5,3.51,99.34z M2.85,233.67c1.39-4.2-0.04-6.26,0.53-11.43 c0.07-0.42,0.13-0.87,0.16-1.29c-0.08,0.48-0.11,0.87-0.16,1.29C2.89,225.2,1.66,228.51,2.85,233.67z M4.01,238.15 c-0.01-0.23-0.03-0.48-0.04-0.75c-0.17-3.28-0.78,5.59-0.46,9.44c0.21-0.21,0.33-1.23,0.41-2.39 C3.96,242.35,3.99,240.25,4.01,238.15z M5.04,168.16l-0.02-0.01c-0.01,0.13-0.01,0.25-0.01,0.37 C5.01,168.41,5.03,168.28,5.04,168.16z M5.26,155.65c0-0.21-0.01-0.42-0.01-0.63l-0.35,0.84C5.04,155.72,5.16,155.66,5.26,155.65z M7.7,62.34l0-0.12c-0.16,0.51-0.28,1.15-0.36,1.88C7.48,63.57,7.62,63.03,7.7,62.34z M8.24,25.52c-0.09,0.94-0.16,1.87-0.29,2.75 c-0.19,1.44-0.45,2.81-0.78,4.08c0.47,0.83,0.78,0.75,1.07,1.06V25.52z M41.58,304H36.1c0.83,0.04,1.6,0.08,2.25,0.13 c0.1,0.01,0.19,0.02,0.29,0.02C39.85,304.12,40.89,304.07,41.58,304z M199.86,308.27c-5.82-0.09-5.34-0.94-11.8-0.87 c0.32,0.12,0.04,0.23-0.14,0.36C191.99,308.11,192.74,308.67,199.86,308.27z M246.64,2.17c-4.07-0.34-4.82-0.91-11.94-0.51 c5.82,0.09,5.34,0.94,11.8,0.87C246.18,2.41,246.46,2.3,246.64,2.17z M398.46,5.92c-0.83-0.04-1.6-0.08-2.25-0.13 c-0.1-0.01-0.19-0.01-0.29-0.02c-1.21,0.04-2.24,0.09-2.93,0.16H398.46z M426.86,247.58l0,0.12c0.16-0.51,0.28-1.15,0.36-1.88 C427.08,246.36,426.95,246.9,426.86,247.58z M427.39,277.57c-0.47-0.83-0.78-0.75-1.07-1.06v7.9c0.09-0.94,0.16-1.87,0.29-2.75 C426.81,280.21,427.06,278.84,427.39,277.57z M429.52,141.76l0.02,0.01c0.01-0.13,0.01-0.25,0.01-0.37 C429.55,141.52,429.53,141.64,429.52,141.76z M429.66,154.06c-0.14,0.14-0.26,0.2-0.36,0.21c0,0.21,0.01,0.42,0.01,0.63 L429.66,154.06z M432.44,233.84l-0.05,3C432.51,235.77,432.5,234.79,432.44,233.84l0.09-4.73 C431.78,229.63,432.28,231.41,432.44,233.84z M430.55,71.78c0.01,0.23,0.03,0.48,0.04,0.75c0.17,3.28,0.78-5.59,0.46-9.44 c-0.21,0.21-0.33,1.23-0.41,2.39C430.6,67.57,430.57,69.68,430.55,71.78z M431.06,210.59c-0.08-1.63-0.01-2.74,0.15-4.98 c-1.66,1.29,0.57,6.01-0.29,12.69c0.79-0.11,0.93-7.78,1.48-10.07C432.23,204.93,431.53,209.43,431.06,210.59z M431.71,76.25 c-1.39,4.2,0.04,6.26-0.53,11.43c-0.07,0.42-0.13,0.87-0.16,1.29c0.08-0.48,0.11-0.87,0.16-1.29 C431.67,84.73,432.9,81.41,431.71,76.25z" fill="#7575D3"/></g></svg>