<?xml version="1.0" encoding="UTF-8"?><svg xmlns="http://www.w3.org/2000/svg" xmlns:xlink="http://www.w3.org/1999/xlink" height="444.3" preserveAspectRatio="xMidYMid meet" version="1.0" viewBox="-0.1 -1.1 349.4 444.3" width="349.4" zoomAndPan="magnify"><g id="change1_5"><path d="M181.6,305.8c-0.7-5.1-0.4-10.2-0.2-15.1c0.3-6.2,0.5-12.1-0.9-17.7c-1.9-7.7-6.9-14.4-12.1-21.4 c-5.6-7.6-11.5-15.4-13.5-25.1c-3.7-18.1,7.3-35,17.3-45.9c0.7-0.8,1.5-1.6,2.2-2.4c5.8-6.3,11.7-12.7,12.5-20.4 c0.4-4-0.6-8-1.6-12.4c-0.5-2.2-1.1-4.4-1.4-6.7c-2.6-16.4,4.1-33.5,17.2-43.7c0.9-0.7,1.8-1.4,2.7-2c2.2-1.6,4.2-3,5.7-4.9 c3.4-4.1,4.2-10,4.8-16.7l6.9,0.6c-0.5,6.1-1.3,14.4-6.3,20.5c-2.1,2.5-4.6,4.3-7,6.1c-0.8,0.6-1.7,1.2-2.5,1.9 c-11,8.5-16.8,23.5-14.6,37.2c0.3,2,0.8,4,1.3,6.1c1.1,4.7,2.3,9.5,1.7,14.7c-1,10-8.1,17.6-14.3,24.4c-0.7,0.8-1.5,1.6-2.2,2.4 c-8.9,9.8-18.8,24.7-15.6,39.9c1.7,8.2,6.8,15.1,12.2,22.4c5.4,7.2,10.9,14.7,13.2,23.8c1.6,6.5,1.4,13.2,1.1,19.6 c-0.2,4.8-0.4,9.4,0.2,13.9L181.6,305.8z" fill="#634FA0"/></g><g id="change1_1"><path d="M226.8,30.1c3.1-1.4,6.5-2.3,9.6-3.6c6.1-2.6,11.3-6.8,16.5-10.9c5.8-4.6,11.8-9.3,18.6-12.3 c6.8-3,14.6-4.4,21.8-2.2c2.1,0.6,4.1,1.6,6.1,2.6c10.7,5.2,21.1,11.3,30.9,18.1c3.8,2.6,7.9,6.3,7.3,10.9 c-16.5-3.2-34.8-6-48.8,3.2c-2.3,1.5-4.5,3.4-7,4.6c-7.9,3.8-17.8,0.5-25.9,4.1c-7,3.1-10.9,10.5-15.7,16.5 c-7.6,9.6-25.3,24.1-29.9,5C206.8,51.9,213.2,36.2,226.8,30.1z" fill="#634FA0"/></g><g id="change1_6"><path d="M187.2,144.1c1.7-12.3,14.2-19.8,25.9-23.9s24.8-7.4,32.2-17.3c3.1-4.1,4.9-9,7.4-13.4 c4.6-8.4,11.6-15.5,19.9-20.2c2.4-1.4,5.1-2.6,6.7-4.9c1.3-1.9,1.7-4.2,2.3-6.5c2.1-7.9,7.2-14.9,14-19.4 c-7.3,15.3,8.2,36.4-1.7,50.1c-3.9,5.4-10.5,8.1-14.8,13.2c-6.5,7.7-6.3,19.6-13.2,27c-5.5,5.9-14.1,7.4-22.1,8.6 c-9,1.3-18,2.7-26.9,4c-6.5,1-13.3,1.9-19.7,0.3c-2.8-0.7-5.5-1.9-8.3-1.9C185.9,139.8,187.2,141.2,187.2,144.1z" fill="#634FA0"/></g><g id="change1_2"><path d="M184.4,126c-3.9-9.2-14.2-14.6-17.7-24c-2.5-7-0.8-14.7-1-22.1c-0.3-10-4.4-19.8-11.4-27.1 c-5.9-6.2-13.9-10.5-18.4-17.8c-2.7-4.3-3.9-9.2-6.1-13.8s-5.6-8.9-10.5-10.1c-2-0.5-4.2-0.4-6.2-1.2c-2.1-0.9-3.5-2.7-5.3-4.1 s-4.4-2.2-6.2-1c7.5,9.2,8.3,22.4,7.7,34.3c-0.2,3.6-0.8,7.2,0.2,10.7c0.8,3.1,2.9,5.8,4.9,8.3c6.5,7.8,14.5,14.9,17.9,24.5 c4.1,11.8,1.3,27,10.8,35.1c3.2,2.7,7.4,4.1,11.4,5.4c12,3.8,24,7.7,36,11.5" fill="#634FA0"/></g><g id="change1_7"><path d="M168.3,196.2c7.6-15.6,25.1-25.7,42.4-24.4c8.2,0.6,16.6,3.5,24.3,0.6c8.1-3,12.7-11.2,18.4-17.7 c6.3-7.2,15.4-12.7,25-12.1c4.2,0.3,8.4,1.7,12.4,0.6c4.5-1.3,7.4-5.4,10.6-8.8c5.8-6,13.5-10.2,21.7-11.8 c-7.2,5.6-6.4,16.3-4.8,25.3c1.6,9,3.9,19-1,26.7c-4.1,6.6-12.2,9.5-19.9,10.7c-7.7,1.1-15.7,1-23,3.6c-7.1,2.5-13,7.3-19.5,11.1 c-14,8.3-30.9,11.7-47.1,9.6c-15.8-2.1-31.9-9.2-47-4.3" fill="#634FA0"/></g><g id="change1_3"><path d="M157.4,200.8c-2.2-10.1-4.4-20.1-6.7-30.2c-1.7-7.5-4.5-16.3-12-18.5c-4.4-1.3-9.4,0.2-13.8-1.2 c-2.9-0.9-5.3-2.9-7.5-4.8c-4.6-4-9.4-8.2-11.7-13.8c-3-7.5-1.2-16.7-6.3-23c-7.2-9.2-22.5-5.9-33.1-11.3 c-8.3-4.2-12.8-13.3-20.8-18c-9.1-5.3-21.3-4.3-29.6-10.6c1.6,9,1,18.7-0.9,27.7c-1.3,5.9-3.3,11.8-2.9,17.8 c0.6,8.2,6.1,15.8,13.8,19.2c5.5,2.4,12,2.7,17,6.1c6.6,4.5,8.7,13.1,9.1,21c0.4,7.9-0.3,16,2.8,23.3c3.5,8.2,12,14.1,21.2,14.7 c11.5,0.8,23.2-6.1,34-2.4c6.1,2.1,10.6,7.3,16.2,10.5c6.4,3.6,14.3,4.6,21.4,2.7c8.5-2.3,16-8.6,24.9-8.7" fill="#634FA0"/></g><g id="change1_4"><path d="M161.6,202.3c-14-1.7-28.5-3.3-41.7,2.1c-10,4.1-18.6,12.1-28.9,15.3c-9,2.8-18.6,1.7-28,2.1 s-19.5,2.6-25.7,10.4c-6,7.5-7.1,18.5-12.1,27c-5.7,9.8-15.7,15.1-25.3,20c12,2.1,21,13.9,32.7,17.8c12.5,4.2,25.9,1.4,38.2-3.2 c8.2-3.1,16.3-7.1,22.1-14.2c2.5-3.1,4.6-6.8,7.7-9.1c8.5-6.3,20.2-0.2,30-3.4c8-2.6,13.3-11,17.3-19.2 C155.5,232.4,159,219.7,161.6,202.3z" fill="#634FA0"/></g><g id="change1_8"><path d="M339.2,212.3c-10.3-9.2-29.4-6-40.7,2.6c-4.8,3.7-9,8.2-15,10.1c-9.1,2.8-18.8-1.5-28.4-1.8 c-18.1-0.7-32.5,12.3-45.8,22.9c-9.5,7.6-19.8,14.4-30.8,20.5c0.2,0.3,0.3,0.6,0.5,1c5.3-1.2,10.8-1.3,17.1-0.1 c3.8,0.7,7.3,2.4,11,3.5c12.8,4,28.1,1.6,38.5-6.1c5.1-3.8,9.2-8.9,15.4-11.2c4-1.5,8.4-1.8,12.7-1.8c4.3,0,8.7,0.2,12.5,1.8 c3.8,1.6,7,4.7,7,8.4c0,3.3-2.5,6.2-4.3,9.2c-4.8,8.1-3.9,18.3,2.2,25.6c4.8,5.7,12.2,9.4,18.1,14.4c5.8,5,13.9,12,10.3,18.4 c6.1-6.3,9.2-14.7,8.4-22.8c-0.9-8.5-5.8-16.5-6-25.1c-0.3-12.5,9.4-23.4,16.4-34.4C345.3,236.2,349.3,221.3,339.2,212.3z" fill="#634FA0"/></g><g id="change2_1"><path d="M296.1,77.2c-0.4-0.3-1.1-0.4-1.4,0c-1.8,2.5-4.4,4.3-7.3,5.2c0.9-2.9,1.4-5.9,1.6-8.8 c0.2-2.3,0.2-4.7,0.2-7.1c3-1.3,5-4.2,5.3-7.5c0-0.5-0.5-1-1-1c-0.6,0-0.9,0.5-1,1c0,0,0,0.1,0,0.1c0,0,0,0,0,0c0,0.1,0,0.2,0,0.2 c0,0.2-0.1,0.3-0.1,0.5c-0.1,0.3-0.2,0.7-0.3,1c0,0,0,0.1,0,0.1c0,0.1-0.1,0.1-0.1,0.2c-0.1,0.2-0.1,0.3-0.2,0.5 c-0.1,0.2-0.2,0.3-0.3,0.4c0,0.1-0.1,0.1-0.1,0.2c0,0-0.1,0.1-0.1,0.2c0,0-0.1,0.1-0.1,0.1c-0.1,0.1-0.1,0.1-0.2,0.2 c-0.1,0.1-0.2,0.2-0.3,0.4c-0.1,0.1-0.2,0.2-0.4,0.4c-0.1,0.1-0.1,0.1-0.2,0.2c0,0,0,0,0,0c0,0,0,0,0,0c-0.3,0.2-0.5,0.4-0.8,0.5 c0-8.2,0.1-16.7,5.7-23c0.9-1-0.6-2.3-1.5-1.4c-5.9,6.6-6.1,15.5-6.1,24.3c-1.7-1.8-2.8-4.1-2.9-6.6c-0.1-1.3-2.1-1.2-2,0.1 c0.2,3.6,2,7.1,4.9,9.2c-0.1,5.3-0.3,10.5-1.9,15.1c-3-1.9-5.2-5.2-5.7-8.8c-0.1-0.5-0.5-1-1-1c-0.5,0-1,0.5-1,1 c0.6,4.4,3.2,8.3,6.9,10.6c-1.5,3.4-4,6.4-7.9,8.8c-1.4,0.9-2.9,1.6-4.4,2.3c0,0,0,0,0,0c-1.3-3.8-1-8,0.7-11.7 c0.5-1.2-1.2-2.1-1.8-1c-1.9,4.1-2.2,8.9-0.8,13.2c0,0.1,0.1,0.2,0.1,0.3c-2,0.9-4.1,1.8-6.1,2.9c-2.9,1.5-5.4,3.3-7.4,5.6 c-0.3-3.3-0.3-6.8,1.4-9.7c0.6-1.1-1.1-2.1-1.8-1c-2.3,3.9-1.9,8.6-1.4,12.9c-0.2,0.4-0.5,0.7-0.7,1.1c-1.3,2.2-2.3,4.7-3.5,7 c-1,2-2.3,3.9-3.7,5.7c-0.6-3.9-0.7-7.8-0.5-11.7c0-0.5-0.5-1-1-1c-0.6,0-0.9,0.5-1,1c-0.3,4.4-0.1,8.8,0.7,13.2 c0,0.1,0,0.2,0.1,0.2c-3.8,3.8-8.6,6.4-14.1,6.9c-1,0.1-2,0.2-3,0.2c-0.3-3.8,0.3-7.7,1.8-11.3c0.2-0.5,0.1-1.1-0.4-1.4 c-0.4-0.2-1.1-0.1-1.4,0.4c-1.6,3.9-2.3,8.1-2,12.4c-1.6,0.1-3.2,0.1-4.9,0.3c-3.4,0.3-6.8,0.8-10.1,1.4c-0.1,0-0.2,0-0.3,0.1 c0.7-2,1.5-4,3.2-5.5c0.4-0.4,0.3-1.1,0-1.4c-0.4-0.4-1-0.3-1.4,0c-2.1,1.9-3.1,4.6-3.9,7.3c-6.1,1.2-12.1,2.7-18.2,4.2 c-1.2,0.3-0.7,2.2,0.6,1.9c5.9-1.5,11.9-3,17.9-4.1c2.4,2.2,5.3,3.8,8.3,4.9c0.5,0.2,1.1-0.2,1.2-0.7c0.1-0.6-0.2-1-0.7-1.2 c-2.3-0.8-4.4-1.9-6.2-3.4c5.3-0.9,10.5-1.5,15.9-1.8c0,0,0,0,0,0c2.3,2,5,3.5,7.8,4.5c0.5,0.2,1.1-0.3,1.2-0.7 c0.1-0.6-0.2-1-0.7-1.2c-1.9-0.7-3.6-1.6-5.3-2.8c2.2-0.2,4.3-0.5,6.4-1.1c2.5-0.8,4.8-2.1,6.8-3.7c1.3-1,2.5-2.1,3.5-3.2 c5.1,0.6,10.2,0.2,15.2-1.2c1.2-0.4,0.6-2.3-0.6-1.9c-4.2,1.2-8.6,1.7-13,1.3c1.8-2.3,3.3-4.7,4.6-7.4c1-2,1.9-4,3.1-5.9 c0.1,0,0.1,0,0.1,0.1c6.1,0.8,12.3,0.4,18.2-1.5c1.2-0.4,0.6-2.3-0.6-1.9c-5.3,1.7-10.9,2.2-16.5,1.5c1.3-1.6,2.9-3,4.7-4.1 c2.8-1.8,5.9-3.1,9-4.5c3.2,0.6,6.5,0.7,9.8,0.2c0.5-0.1,1-0.5,1-1c0-0.5-0.5-1-1-1c-2.1,0.3-4.2,0.4-6.4,0.2c4-2,7.6-4.7,10-8.6 c0.5-0.9,1-1.8,1.4-2.7c3.8-0.8,7.3-3,9.6-6.1C296.5,78.2,296.5,77.6,296.1,77.2z" fill="#62C2AA"/></g><g id="change2_3"><path d="M336.1,30c-3.7-3-7.8-5.4-12.2-7.1c-4.8-1.8-9.7-2.4-14.8-2.6c-4.2-0.2-8.3-0.6-12.5-1 c2.2-2.8,5.5-4.7,9-5.2c0.5-0.1,1-0.5,1-1c0-0.5-0.5-1-1-1c-4.3,0.6-8.3,2.9-10.9,6.4c-0.1,0.2-0.2,0.4-0.2,0.7c-0.2,0-0.3,0-0.5,0 c-3.9-0.3-7.8-0.5-11.7-0.1c1.3-4.5,4.7-8,8.3-10.8c0.4-0.3,0.6-0.9,0.3-1.4c-0.3-0.4-1-0.7-1.4-0.3c-4.2,3.3-8.2,7.5-9.4,12.8 c-0.1,0-0.2,0-0.3,0c-4.4,0.8-8.4,2.8-11.8,5.8c-1.4,1.2-2.7,2.5-3.9,3.8c0.2-5.6,0.8-11.4,4.5-15.8c0.8-1-0.6-2.4-1.5-1.4 c-4.5,5.3-4.9,12.4-5.1,19.1c0,0.1,0,0.1,0,0.2c-1.1,1.1-2.3,2.2-3.6,3.1c-4.2,3.1-9,3.5-13.9,4.3c-0.3,0-0.5,0.1-0.8,0.1 c0.4-4.7,2.2-9.2,5.1-12.9c0.8-1-0.7-2.4-1.5-1.4c-3.3,4.2-5.3,9.3-5.7,14.7c-3.5,0.9-6.7,2.4-9.6,4.6c-1.4,1.1-2.7,2.2-3.8,3.5 c-0.5-4.5,0.2-9.1,2.1-13.2c0.5-1.2-1.2-2.1-1.8-1c-2.3,5.1-3,10.7-2.1,16.1c-2.6,3.3-4.6,7-6.1,10.9c-0.8-1.5-1.2-3.2-1.6-4.7 c-0.6-2.5-0.9-5.1-0.9-7.6c0-1.3-2-1.2-2,0.1c0,2.8,0.4,5.7,1.1,8.4c0.5,2.2,1.2,4.4,2.5,6.2c-1,2.9-1.7,6-2.2,9 c-0.2,1.3,1.7,1.7,1.9,0.5c0.5-2.9,1.2-5.8,2.1-8.6c0.2,0.2,0.4,0.3,0.7,0.2c4.1-0.3,8.1-0.8,12.2-1.7c0.5-0.1,0.8-0.8,0.7-1.3 c-0.2-0.6-0.7-0.8-1.3-0.7c-3.8,0.8-7.7,1.4-11.6,1.6c0,0,0,0,0,0c1.5-4,3.4-7.8,6.1-11.1c3.3,2.7,7.9,3.2,12.1,3.4 c0.5,0,1-0.5,1-1c0-0.6-0.5-0.9-1-1c-3.7-0.3-7.7-0.6-10.7-3c0.6-0.6,1.2-1.3,1.9-1.9c3.1-2.8,6.8-4.9,10.8-6 c-0.1,0.3,0,0.6,0.3,0.9c1.8,2,4.2,3.4,6.7,4.3c0.5,0.2,1.1-0.2,1.2-0.7c0.1-0.6-0.2-1-0.7-1.2c-0.1,0-0.3-0.1-0.4-0.2c0,0,0,0,0,0 c0,0,0,0-0.1,0c-0.1,0-0.1-0.1-0.2-0.1c-0.3-0.1-0.6-0.2-0.8-0.4c-0.5-0.3-1.1-0.6-1.6-0.9c-0.1-0.1-0.2-0.1-0.3-0.2 c-0.1,0-0.1-0.1-0.2-0.1c0,0,0,0,0,0c0,0,0,0,0,0c-0.2-0.2-0.5-0.4-0.7-0.6c-0.4-0.4-0.8-0.7-1.2-1.1c4.3-0.8,8.8-1,12.8-3 c2.3-1.2,4.4-2.8,6.2-4.6c4,3.7,9.2,5.8,14.6,6.1c1.3,0.1,1.2-1.9-0.1-2c-4.8-0.3-9.5-2.3-13.1-5.5c3.6-3.6,7.1-7.5,12.1-9.3 c1.4-0.5,2.9-0.9,4.3-1.1c0.9,4.1,2.5,8.3,6,10.8c0.4,0.3,1,0.4,1.4,0c0.3-0.4,0.4-1.1,0-1.4c-3.1-2.3-4.5-6-5.3-9.6 c3.8-0.4,7.8-0.2,11.7,0.2c0,0.1,0,0.1,0.1,0.2c2.3,3.2,5.5,5.7,9.2,7.1c0.5,0.2,1.1-0.3,1.2-0.7c0.1-0.6-0.2-1-0.7-1.2 c-2.7-1-5.2-2.8-7.1-5c2.3,0.2,4.5,0.5,6.7,0.7c5.7,0.4,11.3,0.4,16.9,2c5.1,1.5,9.8,4.1,13.9,7.4C335.8,32.3,337.1,30.8,336.1,30z" fill="#62C2AA"/></g><g id="change2_4"><path d="M318.6,123.3c-7.2,5.4-10,14.2-13.5,22.2c-0.7-2.8-0.7-5.8-0.7-8.7c0-1.3-2-1.2-2,0.1c0,3.8,0,7.7,1.5,11.2 c-1.8,3.8-4,7.5-7.2,10.3c-0.9,0.8-1.9,1.4-2.9,2c-0.4-1.7-0.7-3.4-0.9-5.1c-0.2-2.1-0.2-4.3,0.5-6.4c0.4-1.2-1.5-1.7-1.9-0.5 c-0.8,2.2-0.7,4.6-0.5,6.9c0.2,2,0.5,4,1.1,5.9c-3.8,1.7-8.1,2.3-12.3,3c-3,0.5-5.9,1.3-8.8,2.3c0-2.4,0.2-4.8,0.8-7.1 c0.5-2.1,1.4-4.3,3.4-5.4c1.1-0.6,0.1-2.3-1.1-1.7c-2.3,1.2-3.5,3.7-4.1,6.1c-0.8,2.9-1.1,5.9-1,8.8c-2.3,0.9-4.5,2.1-6.7,3.5 c-2.6,1.7-5,3.6-7.1,5.8c-1.6,1.6-3,3.3-4.6,4.9c0.1-2.4,0.1-4.7,0.3-7.1c0.2-2.8,0.5-5.7,1.5-8.3c0.5-1.2-1.3-2.1-1.8-1 c-1.1,2.8-1.5,5.7-1.7,8.7c-0.2,3.2-0.3,6.4-0.3,9.6c0,0,0,0.1,0,0.1c-0.2,0.2-0.4,0.4-0.6,0.6c-4.7,4.2-11.1,6.8-17.4,7.4 c-0.1-4.6,0-9.5,3.3-13.1c0.9-0.9-0.6-2.3-1.5-1.4c-3.7,3.9-3.9,9.4-3.8,14.5c-3.1,0-6-0.7-9-1.3c-3.4-0.7-6.9-1.2-10.3-1.6 c0.4-3.6,2.3-6.9,5.2-9c1-0.7,0-2.4-1.1-1.7c-3.5,2.5-5.7,6.3-6.2,10.5c-3.5-0.3-7-0.5-10.5-0.7c-2.4-0.1-4.8-0.3-7.1-0.2 c1.6-3.5,4.1-6.6,7.2-9c0.4-0.3,0.6-0.9,0.3-1.4c-0.3-0.4-0.9-0.6-1.4-0.3c-3.7,2.8-6.6,6.5-8.4,10.8c-0.6,0.1-1.2,0.1-1.8,0.2 c-3.4,0.6-6.4,1.9-9.2,3.9c-2.8,2-5.4,4.5-8.6,5.9c-1.2,0.5-0.6,2.4,0.6,1.9c5.7-2.5,9.7-7.9,15.9-9.4c0.9-0.2,1.9-0.4,2.8-0.5 c2.5,4.2,6.6,7.3,11.3,8.6c1.2,0.3,1.7-1.6,0.5-1.9c-3.9-1.1-7.3-3.5-9.5-6.8c1.6-0.1,3.2,0,4.8,0c3.6,0.2,7.3,0.4,10.9,0.6 c0.7,0.1,1.4,0.1,2.1,0.2c1.5,5.3,5.2,9.8,10.1,12.2c1.2,0.6,2.1-1.2,1-1.8c-4.2-2-7.4-5.8-8.9-10.2c2.3,0.2,4.5,0.5,6.8,0.9 c3.3,0.6,6.6,1.6,10,1.9c0.9,0.1,1.8,0.1,2.7,0.1c0,0.1,0.1,0.2,0.2,0.2c2.6,2.6,5.7,4.5,9.1,5.8c0.5,0.2,1.1-0.3,1.2-0.7 c0.1-0.6-0.2-1-0.7-1.2c-2.6-1-5-2.4-7.1-4.3c4.7-0.5,9.4-2.2,13.4-4.6c2.1-1.2,3.9-2.8,5.6-4.5c0.1,0.1,0.1,0.1,0.2,0.2 c5.4,2.6,11.5,3.8,17.5,3.2c1.3-0.1,1.2-2.1-0.1-2c-5.6,0.5-11.1-0.5-16.2-2.9c2.4-2.5,4.7-5.2,7.4-7.4c3-2.5,6.4-4.6,10.1-6.2 c0.1,0.1,0.1,0.3,0.3,0.4c4.8,4,10.4,6.8,16.5,8.4c1.2,0.3,1.7-1.6,0.5-1.9c-5.6-1.5-10.8-4.1-15.2-7.7c1.6-0.6,3.3-1.1,5-1.5 c5.5-1.3,11.4-1.6,16.6-3.9c0.1,0,0.1,0,0.2,0c0,0,0.1,0.1,0.1,0.1c2.4,1.5,5.1,2.2,7.9,2.4c2.8,0.3,6,0.6,8.5-0.7 c1.2-0.6,0.1-2.3-1.1-1.7c-1.2,0.6-2.6,0.6-3.9,0.6c-1.2,0-2.4-0.1-3.6-0.2c-2.1-0.2-4.1-0.7-6-1.6c3.8-2.3,6.7-5.8,8.9-9.6 c0.6-1.1,1.2-2.2,1.7-3.3c0.1,0,0.1,0,0.2,0c3.6-0.5,6.9-2.2,9.4-4.9c0.9-0.9-0.6-2.3-1.5-1.4c-1.9,2-4.4,3.5-7.1,4.1 c3.5-7.9,6.1-16.7,13.1-22C320.7,124.3,319.6,122.6,318.6,123.3z" fill="#62C2AA"/></g><g id="change2_2"><path d="M186.2,130c-5.8-7.4-14.1-11.8-21.2-17.6c-0.7-0.6-1.5-1.2-2.2-1.9c0.4,0,0.7-0.2,0.9-0.5 c1.7-2.7,2.6-5.8,2.8-9c0-0.5-0.5-1-1-1c-0.6,0-0.9,0.5-1,1c-0.2,2.8-1.1,5.6-2.5,8c-0.1,0.2-0.1,0.4-0.1,0.5 c-2.2-2.2-4.2-4.6-5.7-7.4c-1.4-2.7-2.3-5.5-2.9-8.4c3.6-2.6,6.6-5.9,8.7-9.8c0.6-1.1-1.2-2.1-1.8-1c-1.8,3.4-4.3,6.3-7.3,8.6 c-0.4-2.2-0.6-4.3-0.9-6.5c-0.3-2.5-0.7-5-1.3-7.5c0,0,0,0,0,0c3.5-3.4,6-7.6,7.3-12.3c0.3-1.2-1.6-1.7-1.9-0.5 c-1.1,4-3.2,7.6-6,10.5c-0.5-1.6-1-3.3-1.7-4.8c-1.5-3.3-3.6-6-6.3-8.1c1.6-4.1,2.4-8.5,2.4-12.9c0-1.3-2-1.2-2,0.1 c0,4-0.7,8-2.1,11.7c-0.5-0.3-1.1-0.6-1.6-0.9c-2.3-1.2-4.6-2.3-6.4-4.3c-1.5-1.7-2.5-3.8-3.3-5.9c0-0.3,0-0.5-0.2-0.7 c1.9-3.9,3.6-7.9,4.9-12c0.4-1.2-1.6-1.7-1.9-0.5c-1.1,3.3-2.4,6.6-3.8,9.7c-1.2-4.1-2.1-8.2-3.7-12.3c-0.1-0.3-0.3-0.6-0.4-0.9 c0.2-0.1,0.4-0.4,0.5-0.6c1.3-3.9,2.1-8,2.4-12.1c0-0.5-0.5-1-1-1c-0.6,0-0.9,0.5-1,1c-0.2,3.5-0.9,6.9-1.9,10.3 c-4.4-9.8-10.8-18.6-18.7-25.8c-1-0.9-2.3,0.6-1.4,1.5c7.5,6.8,13.5,15,17.8,24.1c-2.7-0.6-5.3-1.7-7.6-3.2c-1.1-0.7-2,1.1-1,1.8 c2.9,1.8,6.2,3.1,9.6,3.7c2,4.7,3.3,9.6,4.6,14.6c0.1,0.3,0.2,0.6,0.3,0.9c-3.6-1.1-7.1-2.7-10.4-4.7c-1.1-0.7-2,1.1-1,1.8 c3.8,2.3,7.8,4.1,12.1,5.3c1.3,3.5,3.2,6.7,6.4,8.9c1.6,1.1,3.4,1.9,5,2.8c-3.7,2.4-8.2,3.2-12.5,2.1c-1.3-0.3-1.7,1.6-0.5,1.9 c5.1,1.3,10.6,0.2,14.8-2.9c2,1.4,3.6,3.3,4.9,5.4c1.3,2.1,2.1,4.4,2.8,6.8c-0.5,0-1,0.2-1.6,0.4c-0.9,0.3-1.7,0.5-2.6,0.6 c-1.9,0.3-3.8,0.2-5.7-0.1c-1.3-0.3-1.7,1.7-0.5,1.9c1.8,0.4,3.7,0.5,5.6,0.3c0.9-0.1,1.9-0.3,2.8-0.5c0.4-0.1,0.9-0.3,1.3-0.4 c0.2-0.1,0.7-0.3,1-0.2c0.1,0,0.1,0,0.2,0c0.4,1.9,0.8,3.8,1,5.6c0.4,2.9,0.8,5.9,1.3,8.8c-3.7-0.1-7.3-0.5-10.9-1.3 c-1.3-0.3-1.7,1.7-0.5,1.9c3.8,0.9,7.8,1.4,11.7,1.4c0.4,1.9,0.9,3.8,1.6,5.7c1.6,4.2,4.1,7.8,7.3,10.9c-3.4,0.8-7.2,1-9.9-1.5 c-0.9-0.9-2.3,0.6-1.4,1.5c3.6,3.4,8.7,2.9,13,1.7c7.3,6.5,16.5,10.9,22.6,18.7C185.3,132.1,187,131,186.2,130z" fill="#62C2AA"/></g><g id="change2_5"><path d="M155.5,202.1c-2.2-6.1-6.1-11.6-11.2-15.6c-0.1-0.1-0.2-0.1-0.3-0.2c0.1-0.1,0.2-0.3,0.3-0.4 c0.2-0.3,0.2-0.5,0.1-0.7c0-0.1,0-0.1,0-0.2c0.1-6.6,0.1-13.5-2.9-19.6c-0.6-1.2-2.3-0.1-1.7,1.1c2.8,5.7,2.7,12.3,2.6,18.6 c0,0,0,0,0,0.1c-4.4-3-9.3-4.9-14.5-6.2c0.3-5.2,0.3-10.4,0.1-15.5c-0.1-1.3-2.1-1.2-2,0.1c0.3,5,0.3,10,0,15 c-5.5-1.2-11.2-2.1-16.6-3.8c0,0,0.1-0.1,0.1-0.1c1.6-5.4,2.1-11.2,1.5-16.8c-0.1-1.3-2.1-1.2-2,0.1c0.6,5.5,0.2,11-1.4,16.2 c-0.2-0.1-0.5-0.2-0.7-0.3c-6.5-2.6-12-7.2-14.7-13.8c-0.3-0.7-0.6-1.5-0.8-2.2c0.1-0.1,0.1-0.1,0.2-0.2c4-6,5.7-13.1,7.1-20.1 c0.3-1.3-1.7-1.7-1.9-0.5c-1.3,6.2-2.8,12.6-6,18.1c-1.1-5.3-1.1-11-3.6-15.9c-0.9-1.9-2.2-3.4-3.8-4.8c0-0.1,0.1-0.2,0.1-0.3 c0.5-6.3,0.6-12.6,0.3-18.9c0-1.3-2-1.2-2,0.1c0.2,5.9,0.1,11.8-0.3,17.7c-1.7-1.2-3.6-2.2-5.6-2.9c-4.9-1.9-10.1-2.8-15.1-4.3 c-0.3-0.1-0.6-0.2-0.8-0.3c1.6-2.3,2.2-5.5,2.5-8.2c0.4-3.5,0.3-7.1,0.2-10.6c0-1.3-2-1.2-2,0.1c0.1,3.2,0.2,6.5-0.1,9.7 c-0.3,2.7-0.8,6.1-2.6,8.3c-3.7-1.4-7.3-3.3-9.7-6.5c-2.2-3-3.2-6.7-4.5-10.2c-0.5-1.3-1.1-2.6-1.6-3.9c0.3-0.1,0.5-0.3,0.6-0.7 c1.7-6.4,0.9-12.9,0-19.4c-0.2-1.3-2.2-1.2-2,0.1c0.8,5.8,1.7,11.8,0.4,17.6c-0.6-1.3-1.2-2.6-1.9-3.8c-3.4-6.5-7.7-12.5-12.6-17.9 c-1.2-1.4-2.5-2.7-3.8-4c-0.9-0.9-2.3,0.6-1.4,1.5c5.3,5.2,9.9,11.1,13.7,17.4c1.4,2.3,2.7,4.7,3.9,7.2C33,101.7,27,100.9,21.7,98 c-1.1-0.6-2.1,1.1-1,1.8c5.9,3.2,12.6,4,19.1,4.6c0.1,0.2,0.2,0.3,0.2,0.5c1.5,3.4,2.6,7,4,10.4c2.2,5,5.9,8.5,10.9,10.6 c-5.1,1.2-10.4,3.5-15.5,1.7c-1.2-0.4-1.7,1.5-0.5,1.9c6.5,2.4,12.9-1.5,19.3-2.2c0.1,0,0.1,0,0.2-0.1c3.7,1.2,7.6,2.1,11.4,3.1 c3.9,1.1,7.9,2.4,11.1,4.9c-4.4,3.8-9.9,6.5-15.7,7.4c-0.5,0.1-1,0.4-1,1c0,0.5,0.5,1.1,1,1c6.4-1.1,12.3-3.9,17.1-8.1 c0.1,0.1,0.3,0.3,0.4,0.4c4.9,5.3,4.2,13,5.8,19.5c0,0.1,0.1,0.3,0.1,0.4c-3.1,1.1-6.3,2-9.5,2.5c-3.2,0.5-6.7,0.9-9.7-0.4 c-1.2-0.5-2.1,1.2-1,1.8c3.3,1.4,6.9,1.2,10.4,0.7c3.5-0.5,7-1.4,10.4-2.6c1.9,5.5,5.6,10.3,10.4,13.6c1.9,1.3,3.9,2.3,6.1,3.2 c-4.6,2.4-9.5,5-14.7,3.8c-1.3-0.3-1.7,1.7-0.5,1.9c6.4,1.5,12.2-2,17.8-4.8c3.2,1.1,6.5,1.8,9.8,2.5c2.4,0.5,4.9,1,7.3,1.5 c-1.7,1.8-3.6,3.4-5.7,4.8c-1.2,0.8-2.5,1.5-3.8,2.1c-1.4,0.7-2.9,1.3-4.5,1.3c-1.3,0-1.2,2,0.1,2c1.7,0,3.3-0.6,4.8-1.2 c1.5-0.7,2.9-1.4,4.3-2.3c2.6-1.7,5-3.8,7-6.1c3.4,0.8,6.7,1.9,9.8,3.5c1.3,0.7,2.5,1.4,3.7,2.3c-2.3,3-5.4,5.4-8.9,6.7 c-1.2,0.5-0.6,2.4,0.6,1.9c3.9-1.5,7.4-4.1,9.9-7.4c3.5,2.8,6.5,6.3,8.6,10.2c0.8,1.5,1.5,3,2.1,4.6 C154,203.9,156,203.3,155.5,202.1z" fill="#62C2AA"/></g><g id="change2_7"><path d="M153.1,208.8c-2.4,0.7-4.9,1.4-7.4,2.2c0,0-0.1,0-0.1-0.1c-6.7-2.2-13.8-1.8-20.7-1.4 c-1.3,0.1-1.2,2.1,0.1,2c5.8-0.4,11.8-0.7,17.5,0.6c-4.8,1.8-9.4,3.9-13.5,6.8c-6.5-1.2-13.4,0.2-18.9,3.9c-1.1,0.7,0,2.4,1.1,1.7 c4.6-3.1,10.2-4.5,15.7-3.9c-1,0.9-2,1.8-3,2.8c-2.5,2.6-4.3,5.6-6.2,8.6c-1.3-1.2-3.5-1.1-5.2-1.2c-3.1-0.1-6.3-0.1-9.4,0.2 c-1.3,0.1-1.2,2.1,0.1,2c2.7-0.2,5.3-0.3,8-0.2c1.2,0,2.4,0,3.6,0.2c0.6,0.1,1.5,0.2,1.9,0.8c-1,1.5-2,3-3.2,4.3 c-3.7,4.3-8.8,7.3-14.4,8.5c-0.3,0.1-0.7,0.1-1,0.2c-0.3-0.2-0.7-0.2-1-0.1c0-0.2,0-0.4-0.1-0.6c-2.8-5.7-7.8-10.3-13.7-12.7 c-0.5-0.2-1.1-0.1-1.4,0.4c-0.2,0.4-0.1,1.2,0.4,1.4c5.6,2.3,10.2,6.5,12.9,11.9c-1.7,0.1-3.4,0-5.1-0.2c-3.2-0.4-6.4-1.1-9.6-1.2 c-4.7-0.1-9,1.6-12.6,4.5c-5.1-3.5-10.7-6.2-16.6-7.9c-1.2-0.4-1.7,1.6-0.5,1.9c5.5,1.7,10.7,4.1,15.5,7.3 c-5.5,5-9.4,11.5-15.2,16.2c-0.3,0-0.5,0.1-0.7,0.3c-2.8-4.6-6.8-8.4-11.6-10.9c-1.1-0.6-2.1,1.2-1,1.8c4.6,2.4,8.4,6,11,10.4 c-0.1,0.1-0.2,0.2-0.3,0.2c-4.1,2.6-8.9,3.6-13.7,4.1c-2.5-3.8-5.8-7.1-9.7-9.7c-0.5-0.3-1.1,0-1.4,0.4c-0.3,0.5,0,1.1,0.4,1.4 c3.3,2.2,6.1,4.9,8.4,8.1c-0.8,0.1-1.6,0.1-2.4,0.2c-6.5,0.4-13.2,0.6-19.4,3.1c-1.2,0.5-0.6,2.4,0.6,1.9c7.2-2.9,15-2.6,22.5-3.2 c0,0.1,0,0.1-0.1,0.2c-0.1,0.3-0.2,0.5-0.3,0.8c-0.2,0.5-0.5,1.1-0.8,1.6c-0.6,1-1.3,2-2,2.9c-1.6,1.8-3.5,3.3-5.6,4.4 c-0.5,0.2-0.6,1-0.3,1.4c0.3,0.5,0.9,0.6,1.4,0.3c2.9-1.4,5.4-3.6,7.2-6.2c0.9-1.3,1.7-2.7,2.3-4.1c0.2-0.4,0.4-0.9,0.5-1.4 c3.3-0.4,6.5-1,9.6-2.3c1.5-0.6,2.9-1.4,4.3-2.3c0.1,0.1,0.2,0.2,0.3,0.2c-0.1,3.7-1,7.3-2.8,10.6c-0.6,1.1,1.2,2.1,1.8,1 c2.2-4.1,3.2-8.8,3-13.5c5.1-4.2,9-9.8,13.6-14.6c0.5-0.5,1.1-1.1,1.6-1.6c0.3,0.8,0.5,1.6,0.7,2.5c0.3,1.4,0.4,2.8,0.5,4.2 c0.1,3-0.2,5.9-1,8.7c-0.3,1.2,1.6,1.7,1.9,0.5c0.8-3.1,1.2-6.4,1-9.6c-0.1-1.6-0.3-3.2-0.6-4.8c-0.2-1-0.5-2-0.9-2.9 c2.2-1.8,4.7-3.2,7.6-3.8c6.3-1.3,12.6,1.5,19,1c0.2,0,0.4-0.1,0.6-0.1c-0.6,5.1-3.1,9.9-6.9,13.3c-1,0.9,0.5,2.2,1.5,1.4 c4.3-3.8,7-9.3,7.5-15c4.6-0.8,8.9-2.7,12.6-5.5c2.8-2.2,4.9-4.9,6.8-7.7c0.9,4.8,0.7,9.7-0.7,14.4c-0.4,1.2,1.6,1.7,1.9,0.5 c0.8-2.9,1.3-5.9,1.3-9c0-1.5-0.1-3-0.3-4.5c-0.1-0.7-0.2-1.5-0.4-2.2c-0.1-0.5-0.1-1-0.4-1.4c0.8-1.2,1.6-2.5,2.5-3.7 c2.2-3.3,4.9-6,7.9-8.2c2.7,5.1,3.5,11.1,2,16.6c-0.3,1.2,1.6,1.7,1.9,0.5c1.6-6.1,0.7-12.7-2.3-18.3c4-2.7,8.5-4.8,13.2-6.4 c0,0.1,0,0.2,0,0.3c1.4,4,1.9,8.3,1.2,12.5c-0.2,1.3,1.7,1.7,1.9,0.5c0.7-4.5,0.3-9.2-1.2-13.5c0-0.1-0.1-0.2-0.2-0.3 c2.5-0.9,5.1-1.6,7.7-2.3C154.9,210.4,154.3,208.5,153.1,208.8z" fill="#62C2AA"/></g><g id="change2_6"><path d="M336.1,236.4c-2.9-5.7-9.7-9.1-16-8.1c-0.2,0-0.3,0.1-0.4,0.2c-5.2-2.8-11.6-1.5-16.8,1 c-2.7,1.3-5.2,2.9-7.9,4.4c0.9-5.5,4.1-10.5,8.8-13.6c1.1-0.7,0-2.4-1.1-1.7c-5.3,3.5-9,9.3-9.8,15.7c0,0.2,0,0.4,0.1,0.5 c0,0.1-0.1,0.1-0.1,0.2c-3.8,2-7.8,3.6-12.3,3.3c-3.4-0.2-6.5-1.3-9.6-2.6c0,0,0-0.1,0-0.1c2.5-2.5,5.5-4.3,8.8-5.3 c1.2-0.4,0.6-2.3-0.6-1.9c-3.8,1.2-7.2,3.3-10,6.2c-0.1,0.1-0.2,0.2-0.2,0.3c-2.9-1.2-5.9-2.4-9-2.9c-4.2-0.7-8.4,0-12.3,1.4 c0.1-0.3,0.1-0.4,0.3-0.7c0.3-0.6,0.6-1.2,0.9-1.7c0.6-0.9,1.6-2,2.5-2.7c0.4-0.3,0.6-0.9,0.3-1.4c-0.3-0.4-0.9-0.6-1.4-0.3 c-2.4,1.8-4.2,4.4-4.9,7.4c0,0.1,0,0.2,0,0.3c-2.3,1-4.6,2.3-6.7,3.7c-4,2.6-7.6,5.8-11.3,8.8c0.1-2.2,1.4-4.4,2.3-6.3 c1.3-2.5,2.7-4.8,4.2-7.2c0.7-1.1-1.1-2-1.8-1c-1.6,2.6-3.2,5.2-4.6,7.9c-1.3,2.5-2.5,5.1-2.1,8c-1.8,1.4-3.6,2.8-5.5,4 c-1.9,1.3-3.9,2.3-6,3.2c-0.1-0.1-0.3-0.2-0.4-0.2c0.9-3.3,2.6-6.4,4.9-9c0.8-1-0.6-2.3-1.5-1.4c-2.6,3-4.5,6.6-5.5,10.5 c-0.1,0.4,0,0.7,0.3,0.9c-4.7,1.8-9.7,2.7-14.8,3.4c-2,0.3-4.1,0.5-6.1,0.7c-1.3,0.1-1.2,2.1,0.1,2c7.7-0.8,15.7-1.6,22.9-4.6 c3.7,2.8,8,4.7,12.6,5.6c1.3,0.2,1.7-1.7,0.5-1.9c-3.9-0.7-7.7-2.3-11-4.6c4-1.9,7.5-4.5,11-7.3c1,2,3.8,3,5.7,3.8 c2.7,1.3,5.6,2.3,8.4,3.2c1.2,0.4,1.7-1.6,0.5-1.9c-2.6-0.8-5.1-1.7-7.5-2.8c-1.2-0.5-2.3-1.1-3.5-1.7c-0.8-0.5-1.6-1-1.9-1.9 c1.5-1.3,3.1-2.5,4.6-3.8c4.1-3.3,8.5-6.6,13.4-8.7c3.2,3.7,7.4,6.4,12.2,7.8c1.2,0.4,1.7-1.6,0.5-1.9c-4.1-1.2-7.8-3.5-10.7-6.6 c1.6-0.5,3.2-1,4.9-1.2c5.7-0.8,10.8,1.2,15.9,3.2c1.3,3.5,3.9,6.6,7.3,8.3c1.1,0.6,2.1-1.2,1-1.8c-2.4-1.3-4.3-3.2-5.6-5.6 c0.8,0.3,1.6,0.6,2.4,0.9c3.3,1.1,6.8,1.6,10.3,1c2.9-0.5,5.7-1.6,8.4-3c0.7,3.7,2.5,7.2,5.2,9.9c0.9,0.9,2.3-0.5,1.4-1.5 c-2.5-2.6-4.1-5.9-4.7-9.5c0.3-0.2,0.6-0.3,0.8-0.5c6.2-3.5,13.1-8.3,20.5-6.3c0.2,0,0.4,0.1,0.5,0.2c-4.7,1.8-8.8,5.2-11.6,9.4 c-0.7,1.1,1.1,2,1.8,1c2.9-4.5,7.4-7.7,12.5-9.2c1.7,1.1,3.1,2.7,3.7,4.7c1,3.3-0.1,6.9-1.8,9.8c-6.6,0-13.1,2.4-18.1,6.7 c-1,0.8,0.5,2.2,1.5,1.4c4.3-3.7,9.8-5.7,15.4-6.1c-1.9,2.8-4.3,5.3-6.3,8c-1.9,2.6-3.4,5.5-4.6,8.5c-0.1,0.2-0.1,0.4-0.2,0.6 c-0.1,0.1-0.1,0.1-0.2,0.2c-1.2-0.8-2.9,0-4.1,0.6c-1.6,0.9-3.1,1.9-4.4,3.1c-2.7,2.4-4.9,5.4-6.4,8.7c-0.5,1.2,1.2,2.1,1.8,1 c1.2-2.8,3-5.4,5.3-7.5c1.1-1,2.3-2,3.6-2.8c0.6-0.4,1.3-0.8,2-1.1c0.4-0.2,1-0.5,1.4-0.1c0.1,0.1,0.2,0.1,0.3,0.2 c-1.6,5.3-2.3,10.9-1.8,16.5c-0.9,0.4-1.4,1.3-1.8,2.2c-0.6,1.4-1.1,2.9-1.4,4.3c-0.7,3-0.9,6.1-0.5,9.1c0.1,1.3,2.1,1.2,2-0.1 c-0.3-2.5-0.2-5,0.3-7.5c0.2-1.2,0.5-2.4,1-3.5c0.1-0.4,0.4-1.4,0.8-2.1c0.7,5.5,2.5,10.9,5.3,15.8c0.8,1.4,1.8,2.8,2.8,4.1 c0.8,1,2.5,0,1.7-1.1c-4.3-5.5-6.9-12.1-7.8-19c4.4,0.7,8.4,3.6,10.4,7.7c0.2,0.5,1,0.6,1.4,0.3c0.5-0.3,0.6-0.9,0.3-1.4 c-2.3-4.7-7.1-7.9-12.3-8.6c-0.5-5.5,0.1-11.1,1.8-16.4c3.4,2.5,5.9,6.2,6.9,10.3c0.3,1.2,2.2,0.7,1.9-0.6 c-1.2-4.7-4.2-8.9-8.2-11.7c1-2.8,2.4-5.4,4.1-7.9c2-2.9,4.4-5.5,6.4-8.3c0.9,3.1,1.5,6.2,1.7,9.4c0.1,1.3,2.1,1.2,2-0.1 c-0.3-3.9-1.1-7.8-2.3-11.5c3-5.2,4.1-12.2-0.8-16.6c5.1-0.1,9.9,2.7,12.3,7.3C335,238.6,336.7,237.5,336.1,236.4z" fill="#62C2AA"/></g><g id="change3_1"><path d="M232.9,436.8c3.9-11.1,7.7-22.1,10.4-33.6c2-8.6,3.4-17.4,4.7-26.2c0.9-5.8,1.8-11.7,2.2-17.6 c0.6-8,0.4-16,0.2-24.1c-0.2-9.4-0.7-18.5-0.9-27.9c-44.8-7.4-90.6-2.1-135.7,3.1c1.6,37.2,6.8,73.6,16.5,109.5 c1.7,6.3,3.6,12.7,6.6,18.5c5.6,2.3,11.7,2.1,17.7,2.5c16,1.2,32.1,2.2,48,0.5C212.7,440.5,223,439,232.9,436.8z" fill="#EA5524"/></g><g id="change4_5"><path d="M136.9,384.7c-1.3-7.7-2.6-15.4-3.9-23c-0.6-3.8-1.3-7.6-1.9-11.5c-0.6-3.8-1.3-7.6-1.7-11.5 c-0.4-3.7-0.6-7.5-1.1-11.2c-0.2-1.8-0.5-3.5-0.9-5.3c-0.3-1.2-0.5-3-1.7-3.7c-1.2-0.8-2.6,0-3.1,1.2c-0.7,1.5-0.3,3.4-0.2,5 c0.2,3.9,0.5,7.8,0.7,11.7c0.2,3.8,0.5,7.6,0.7,11.4c0.3,3.7,0.6,7.4,1.5,11.1c0.9,3.7,2.2,7.3,3,11c0.8,3.7,1.3,7.4,1.9,11.1 c1,7.5,2,15,3.4,22.4c0.6,3.6,1.4,7.3,2.2,10.9c0.9,3.7,2.1,7.3,2.9,11c0.4,1.8,0.7,3.7,0.6,5.6c0,0.6,1,0.6,1,0 c0.2-3.7-1-7.2-2-10.7c-1-3.5-1.8-7-2.6-10.6c-1.5-7.3-2.6-14.6-3.6-21.9c-1-7.2-1.7-14.6-3.8-21.6c-1-3.6-2.2-7.1-2.8-10.8 c-0.6-3.6-0.8-7.3-1-10.9c-0.2-3.8-0.5-7.6-0.7-11.3c-0.1-1.9-0.2-3.8-0.4-5.7c-0.1-1.8-0.3-3.7-0.3-5.5c0-0.8,0.1-1.6,0.7-2.2 c0.7-0.5,1.3-0.2,1.7,0.5c0.3,0.6,0.5,1.4,0.7,2.1c0.2,0.9,0.4,1.9,0.6,2.8c0.6,3.6,0.9,7.3,1.2,11c0.6,7.5,2.1,14.8,3.3,22.2 c1.3,7.5,2.5,15,3.8,22.4c2.5,15,5,29.9,7.6,44.9l0.9,5.4c0.1,0.6,1.1,0.6,1,0L136.9,384.7z" fill="#EBE438"/></g><g id="change4_2"><path d="M157.7,409.7c0.1-3.9,0.1-7.8-0.1-11.7c-0.2-3.8-0.7-7.7-1.3-11.5c-1.2-7.6-2.9-15.2-3.5-22.9 c-0.6-7.4-0.3-14.8-0.4-22.2c-0.1-7.2-0.7-14.6-2.8-21.5c-0.1-0.4-0.3-0.9-0.4-1.3c-0.1-0.4-0.2-0.8-0.4-1.1 c-0.3-0.5-1.3-0.4-1.8-0.3c-1.4,0.4-2.4,1.6-2.7,3c-0.5,1.7-0.2,3.5,0,5.3c0.2,2,0.3,4,0.5,6c1.3,15.8,2.7,31.6,4.2,47.4 c1.5,15.8,3.1,31.6,4.7,47.4c0.2,1.9,0.4,3.8,0.6,5.7c0.1,0.6,1.1,0.6,1,0c-1.6-15.2-3.1-30.4-4.6-45.6 c-1.5-15.2-2.8-30.4-4.1-45.7c-0.4-4.3-0.7-8.6-1.1-12.9c-0.2-2-0.5-4.1-0.4-6.1c0.1-1.5,1.1-3.6,2.9-3.4c5.1,13.9,3,29,3.8,43.4 c0.4,7.6,1.9,15.1,3.2,22.6c0.7,3.9,1.2,7.8,1.5,11.7c0.3,3.9,0.3,7.8,0.2,11.7c-0.1,8.6-0.6,17.3,1,25.8c0.1,0.6,1.1,0.3,1-0.3 C157.2,425.3,157.5,417.5,157.7,409.7z" fill="#EBE438"/></g><g id="change4_3"><path d="M177.8,317.2c-1.6-1.9-5.1-3.7-6.9-1c-0.9,1.4-0.9,3.4-1.1,5c-0.3,2.1-0.5,4.2-0.7,6.2 c-0.9,8.2-1.3,16.4-0.2,24.6c0.6,4.1,1.5,8.1,2.1,12.2c0.6,4.1,0.9,8.3,1.1,12.4c0.3,8.4,0.2,16.8,0.1,25.2 c-0.1,8.4-0.4,16.7-0.8,25.1c-0.1,2.1-0.2,4.1-0.3,6.2c0,0.6,1,0.6,1,0c1-16.4,1.4-32.8,1.2-49.2c0-4.1-0.1-8.3-0.4-12.4 c-0.3-4-0.9-7.9-1.6-11.8c-0.7-4-1.5-8-1.8-12.1c-0.3-4-0.2-8,0-12c0.2-4.1,0.7-8.3,1.2-12.4c0.2-1.8,0.3-3.7,0.7-5.5 c0.4-1.6,1.6-2.4,3.2-1.8c3.2,1.1,4.4,5,4.7,8c0.3,3.5-0.3,6.9-0.8,10.3c-0.7,3.8-1.2,7.6-1.5,11.4c-0.3,3.9-0.4,7.8-0.3,11.7 c0.1,7.9,0.6,15.9,0.8,23.8c0.1,3.9,0.2,7.9,0,11.8c-0.1,4.1-0.5,8.1-0.9,12.2c-0.9,7.9-2,15.9-1.6,23.9c0.1,1.9,0.3,3.9,0.6,5.8 c0.1,0.6,1.1,0.6,1,0c-1.3-8.2-0.5-16.5,0.4-24.6c0.5-4,0.9-8.1,1.2-12.1c0.3-4,0.4-8.1,0.3-12.1c-0.1-8.2-0.7-16.3-0.9-24.4 c-0.2-8.1-0.1-16.3,1.2-24.4c0.6-3.5,1.3-7,1.4-10.6C180.4,323.4,179.9,319.8,177.8,317.2z" fill="#EBE438"/></g><g id="change4_4"><path d="M206.3,317.6c-0.4-1.3-1.5-2.6-2.9-3c-3.1-0.9-5.5,3.1-6.3,5.5c-1.2,3.4-1.2,7.2-1.1,10.8 c0.1,4.2,0.4,8.3,0.5,12.5c0.1,4.2-0.4,8.4-0.9,12.6c-0.5,4-1.1,8-1.4,12c-0.3,4-0.4,8-0.5,12c-0.1,8.1,0.1,16.1,0.1,24.2 c-0.1,8-0.4,16.1-1.8,24c-0.3,1.9-0.7,3.8-1.1,5.7c-0.1,0.6,0.8,0.9,1,0.2c1.8-7.6,2.5-15.3,2.8-23.1c0.3-7.9,0.1-15.7,0-23.6 c-0.1-7.9,0-15.8,0.8-23.6c0.4-4,1.1-8,1.5-12c0.4-4,0.5-8,0.3-12.1c-0.2-4.1-0.5-8.1-0.3-12.2c0.1-3.3,0.4-6.8,2.2-9.6 c0.8-1.3,2.4-2.9,4-2.3c1.7,0.6,2.3,2.5,2.3,4.2c0,2-0.6,4-0.9,6c-0.3,2-0.6,4-0.8,6c-0.4,4-0.7,8-0.8,12c-0.1,4,0.1,8.1,0.1,12.1 c0,2-0.1,4.1-0.5,6.1c-0.3,1.9-0.9,3.7-1.5,5.5c-0.6,1.8-1.1,3.7-1.6,5.5c-0.4,1.9-0.7,3.8-0.8,5.7c-0.3,3.9-0.1,7.9,0,11.8 c0.2,4.1,0.2,8.1,0.2,12.2c-0.1,8.2-0.7,16.4-1.8,24.6c-0.3,2-0.5,4-0.9,5.9c-0.1,0.6,0.9,0.9,1,0.2c1.3-8.2,2.1-16.6,2.5-24.9 c0.2-4.2,0.2-8.3,0.2-12.5c-0.1-4.1-0.3-8.2-0.4-12.3c0-4,0.2-8.1,1.3-12c1-3.8,2.5-7.5,2.9-11.4c0.5-4.1,0.1-8.2,0.1-12.3 c0-4.1,0.1-8.3,0.5-12.4c0.4-4.2,0.9-8.4,1.7-12.5C206.5,321.4,206.9,319.5,206.3,317.6z" fill="#EBE438"/></g><g id="change4_1"><path d="M223,340c-0.1-3.9,0.1-7.9,0.8-11.8c0.6-3.5,1.4-7.3,0.2-10.8c-0.1-0.3-0.3-0.8-0.5-1.1 c-0.2-0.3-0.6-0.3-0.9-0.3c-0.6,0-1.2,0.2-1.7,0.5c-1.1,0.7-1.9,1.8-2.4,3c-0.6,1.5-0.9,3.1-1,4.7c-0.2,2-0.3,4-0.4,6 c-0.1,4.1,0.1,8.2,0.2,12.3c0.1,4.1,0.1,8.1,0,12.2c-0.1,8.1-0.5,16.2-1.2,24.2c-0.7,8.1-1.6,16.2-2.8,24.3c-1.2,8-2.7,16-4.4,24 c-0.4,1.9-0.9,3.8-1.3,5.8c-0.1,0.6,0.8,0.9,1,0.2c3.7-15.6,6.3-31.4,7.9-47.3c1.6-15.8,2.2-31.7,1.8-47.6 c-0.1-4.6-0.2-9.2,0.3-13.7c0.2-1.8,0.4-3.6,1.3-5.2c0.6-1.2,1.6-2.3,3-2.3c1.5,3.3,0.7,7.1,0.1,10.6c-0.6,3.7-0.9,7.5-0.9,11.3 c0,7.7,1.2,15.4,1.9,23.1c0.4,3.8,0.7,7.7,0.7,11.6c0,3.9-0.2,7.7-0.8,11.6c-0.5,3.9-1.3,7.9-2,11.8l-2.2,12 c-0.8,4.5-1.6,9-2.4,13.5c-0.4,2.2-0.8,4.4-1.2,6.6c-0.2,1.1-0.4,2.3-0.6,3.4l-0.3,1.7c-0.1,0.4-0.1,1.3-0.3,1.6 c-0.4,0.5,0.3,1.2,0.7,0.7c0.3-0.3,0.3-0.6,0.4-1l0.3-1.6c0.2-1,0.4-2,0.6-3.1c0.4-2.1,0.8-4.2,1.1-6.3l2.2-12.4 c1.5-8.2,3.1-16.3,4.4-24.5c0.6-4,1.1-8,1.1-12c0.1-4-0.2-8-0.5-11.9C224.3,355.9,223.1,348,223,340z" fill="#EBE438"/></g><g id="change4_6"><path d="M243.8,325.4c-0.2-1.8-0.6-3.7-1.3-5.4c-0.4-1.1-1.5-2.4-2.8-2.3c-0.8,0.1-1,0.7-1.3,1.4 c-0.3,0.8-0.6,1.7-0.8,2.6c-0.5,1.7-0.9,3.5-1.2,5.2c-0.6,3.6-0.9,7.2-0.9,10.8c-0.1,7.4,0.5,14.8,0.5,22.2c0,3.7-0.2,7.4-0.7,11.1 c-0.6,3.9-1.7,7.7-2.6,11.6c-1.7,7.8-2.5,15.7-2.9,23.7c-0.2,3.7-0.4,7.6-1.8,11.1c-0.7,1.7-1.7,3.3-2.3,5 c-0.6,1.8-0.9,3.7-1.1,5.5c-0.2,1.8-0.4,3.6-0.8,5.4c-0.2,0.6,0.8,0.9,1,0.2c0.9-3.6,0.6-7.4,1.9-10.9c0.6-1.7,1.7-3.3,2.3-4.9 c0.7-1.7,1.1-3.4,1.3-5.2c0.5-3.6,0.5-7.3,0.7-11c0.3-3.9,0.7-7.9,1.3-11.8c0.6-3.9,1.4-7.7,2.4-11.5c0.9-3.6,1.6-7.2,1.9-10.9 c0.6-7.2,0.1-14.5-0.1-21.7c-0.2-7.1-0.2-14.3,1.4-21.3c0.2-0.8,0.4-1.7,0.7-2.5c0.3-0.9,0.5-1.9,0.9-2.7c0.4-0.8,1.3,0.1,1.7,0.6 c0.5,0.7,0.7,1.5,0.9,2.3c1.1,3.7,1.1,7.7,1,11.5c-0.1,8.1-0.4,16.1-0.9,24.2c-0.2,3.9-0.5,7.9-1.1,11.8c-0.6,3.9-1.5,7.7-2.6,11.4 c-1,3.8-1.6,7.6-2,11.5c-0.4,4.1-0.8,8.1-1.3,12.1c-1,7.8-2.3,15.6-4,23.4c-0.4,1.9-0.8,3.8-1.3,5.7c-0.1,0.6,0.8,0.9,1,0.2 c1.9-7.9,3.4-15.9,4.6-23.9c0.6-4,1.1-8.1,1.5-12.1c0.4-4,0.6-8.1,1.4-12.1c0.8-4,2.1-7.8,2.9-11.7c0.8-3.9,1.2-7.8,1.6-11.8 c0.7-8.3,1-16.6,1.2-24.8C244.1,333.3,244.3,329.3,243.8,325.4z" fill="#EBE438"/></g></svg>